<svg width="24" height="24" xmlns="http://www.w3.org/2000/svg"><g fill="#192752"><path d="M22.588 12.892v-9.81a.348.348 0 010-.14 2.951 2.951 0 00-2.89-2.941 2.954 2.954 0 00-3.032 2.798h-.004a1.892 1.892 0 00-1.415 1.825.418.418 0 00.424.42h2.964a.425.425 0 00.424-.42 1.895 1.895 0 00-1.544-1.855A2.111 2.111 0 0119.712.843a2.108 2.108 0 012.03 2.1.366.366 0 010 .14v9.809H1.411c-.71 0-1.31.524-1.4 1.223-.09.7.357 1.357 1.044 1.534h.002C1.342 17.032 2.622 22 6.353 22h11.294c3.731 0 5.011-4.969 5.295-6.35h.002a1.402 1.402 0 001.044-1.535c-.09-.7-.69-1.223-1.4-1.223zm-4.464-8.688h-1.942c.168-.383.55-.63.97-.63.422 0 .803.247.972.63zm-.477 16.955H6.353c-2.896 0-4.08-4.01-4.416-5.465h20.126c-.333 1.455-1.515 5.465-4.416 5.465zm4.941-6.305H1.412a.563.563 0 01-.565-.561c0-.31.253-.56.565-.56h21.176c.312 0 .565.25.565.56 0 .31-.253.56-.565.56zM8.527 23H6.473a.488.488 0 00-.473.5c0 .276.212.5.473.5h2.054A.488.488 0 009 23.5c0-.276-.212-.5-.473-.5zm9 0h-2.054a.488.488 0 00-.473.5c0 .276.212.5.473.5h2.054a.488.488 0 00.473-.5c0-.276-.212-.5-.473-.5z"/><path d="M2.434 13a.423.423 0 00.307-.133.465.465 0 00.126-.322c0-1.54.927-2.914 2.313-3.428 1.387-.513 2.931-.055 3.855 1.144.5.646.773 1.453.772 2.284a.46.46 0 00.217.394c.134.081.3.081.434 0a.459.459 0 00.217-.394c0-.702-.155-1.395-.454-2.024.258-.114.535-.173.815-.172 1.158 0 2.096.984 2.097 2.196 0 .163.082.313.216.394.135.081.3.081.434 0a.459.459 0 00.217-.394c-.002-1.714-1.328-3.103-2.964-3.105a2.825 2.825 0 00-1.284.306c-1.14-1.528-3.08-2.13-4.829-1.498C3.173 8.88 2 10.606 2 12.545c0 .121.045.237.127.322a.423.423 0 00.307.133zM17 9.613V6.387c0-.214-.224-.387-.5-.387s-.5.173-.5.387v3.226c0 .214.224.387.5.387s.5-.173.5-.387zM18.5 9c.133 0 .26-.05.354-.139A.461.461 0 0019 8.526V6.474A.487.487 0 0018.5 6c-.276 0-.5.212-.5.474v2.052c0 .126.053.246.146.335A.514.514 0 0018.5 9zm-.5 3.526c0 .262.224.474.5.474s.5-.212.5-.474v-2.052a.487.487 0 00-.5-.474c-.276 0-.5.212-.5.474v2.052z"/></g></svg>