<svg width="24" height="16" xmlns="http://www.w3.org/2000/svg"><g fill="#192752"><path d="M12 10.133a3.47 3.47 0 01-3.467-3.466A3.47 3.47 0 0112 3.2a3.47 3.47 0 013.467 3.467A3.47 3.47 0 0112 10.133zm0-5.866a2.403 2.403 0 00-2.4 2.4c0 1.323 1.077 2.4 2.4 2.4s2.4-1.077 2.4-2.4c0-1.324-1.077-2.4-2.4-2.4z"/><path d="M12 16c-2.23 0-5.6 0-5.6-2.933C6.4 10.453 10.565 9.6 12 9.6c1.754 0 5.6.873 5.6 3.467C17.6 16 14.23 16 12 16zm0-5.333c-1.249 0-4.533.738-4.533 2.4 0 1.577 1.526 1.866 4.533 1.866 3.007 0 4.533-.289 4.533-1.866 0-1.71-3.2-2.4-4.533-2.4zM5.6 6.933A3.474 3.474 0 012.132 3.49a3.441 3.441 0 011-2.458A3.445 3.445 0 015.58 0C7.5 0 9.056 1.545 9.068 3.445A3.472 3.472 0 015.62 6.933H5.6zm0-5.866a2.393 2.393 0 00-1.708.713c-.45.456-.82 1.06-.816 1.702.008 1.315 1.209 2.385 2.275 2.385h.14c1.323-.009 2.456-1.092 2.447-2.415C7.93 2.137 6.915 1.067 5.6 1.067z"/><path d="M5.338 12.8c-1.438 0-2.587-.073-3.476-.38C.634 11.997.008 11.15 0 9.9c-.005-.82.41-1.973 2.412-2.802 1.218-.505 2.572-.694 3.184-.698.68-.004 1.603.127 2.404.352l-.29 1.027a8.336 8.336 0 00-2.107-.312c-.508.003-1.712.173-2.78.616-.802.333-1.758.917-1.752 1.812.005.79.346 1.244 1.141 1.518.806.278 1.95.33 3.419.32l.006 1.066-.299.001zM18.4 6.933h-.021a3.443 3.443 0 01-2.446-1.03 3.441 3.441 0 01-1-2.458A3.474 3.474 0 0118.4 0a3.476 3.476 0 013.467 3.489A3.475 3.475 0 0118.4 6.933zm.015-5.866A2.408 2.408 0 0016 3.452a2.382 2.382 0 00.692 1.701c.451.456 1.174.71 1.815.714h.138c1.066 0 2.269-1.07 2.277-2.385.009-1.324-1.184-2.407-2.507-2.415z"/><path d="M18.856 12.8l-.492-.002.007-1.066c3.032.016 4.55-.26 4.56-1.838.01-1.66-3.28-2.419-4.533-2.427h-.025c-.474 0-1.26.082-2.084.311L16 6.752c.801-.224 1.723-.36 2.403-.352 1.44.01 5.613.888 5.597 3.5-.017 2.725-2.936 2.9-5.144 2.9z"/></g></svg>