<svg xmlns="http://www.w3.org/2000/svg" width="33" height="32"><g transform="translate(.043)" fill="#192752"><path d="M16.033 2.887c4.28 0 4.787.016 6.477.093 1.563.071 2.412.332 2.977.551a4.952 4.952 0 011.842 1.197 4.94 4.94 0 011.2 1.839c.219.563.48 1.41.551 2.97.077 1.686.094 2.192.094 6.463s-.017 4.777-.094 6.464c-.071 1.56-.332 2.406-.552 2.97a5.301 5.301 0 01-3.041 3.035c-.565.22-1.414.48-2.977.551-1.69.077-2.196.093-6.477.093-4.28 0-4.787-.016-6.477-.093-1.562-.071-2.411-.332-2.976-.55a4.98 4.98 0 01-1.843-1.197 4.961 4.961 0 01-1.199-1.84c-.22-.563-.48-1.41-.552-2.97-.077-1.686-.093-2.192-.093-6.463 0-4.27.016-4.777.093-6.463.072-1.56.333-2.407.552-2.97a4.951 4.951 0 011.2-1.84A4.966 4.966 0 016.58 3.531c.565-.22 1.414-.48 2.977-.55 1.69-.078 2.197-.094 6.476-.094zm0-2.882c-4.353 0-4.899.018-6.608.096C7.72.18 6.554.45 5.535.845a7.85 7.85 0 00-2.84 1.845A7.859 7.859 0 00.846 5.523C.45 6.54.18 7.703.102 9.405.023 11.111.005 11.656.005 16c0 4.344.018 4.889.097 6.595.078 1.702.349 2.865.745 3.882a7.82 7.82 0 001.849 2.833 7.842 7.842 0 002.838 1.845c1.02.396 2.185.666 3.891.744 1.71.078 2.256.096 6.609.096s4.899-.018 6.608-.096c1.706-.078 2.871-.348 3.89-.744a8.182 8.182 0 004.688-4.678c.397-1.017.668-2.18.745-3.882.078-1.706.097-2.251.097-6.595 0-4.344-.019-4.889-.097-6.595-.077-1.702-.348-2.865-.745-3.882a7.83 7.83 0 00-1.848-2.833 7.865 7.865 0 00-2.84-1.846c-1.02-.395-2.184-.665-3.89-.742-1.71-.079-2.256-.097-6.609-.097z"/><path d="M16.033 7.786c-4.545 0-8.23 3.678-8.23 8.214 0 4.536 3.685 8.214 8.23 8.214 4.546 0 8.231-3.678 8.231-8.214 0-4.536-3.685-8.214-8.23-8.214zm0 13.546c-2.95 0-5.342-2.387-5.342-5.332s2.392-5.332 5.342-5.332c2.951 0 5.343 2.387 5.343 5.332s-2.392 5.332-5.343 5.332z"/><ellipse cx="24.589" cy="7.462" rx="1.923" ry="1.919"/></g></svg>