<svg xmlns="http://www.w3.org/2000/svg" width="32" height="32"><g fill="none" fill-rule="evenodd"><circle cx="16" cy="16" r="16" fill="#000" fill-opacity=".55"/><g fill="#FFF" fill-rule="nonzero"><path d="M21.297 12.525a.978.978 0 00-1.374.144c-.349.43-.267 1.046.164 1.394a2.47 2.47 0 01.903 1.908c0 .82-.39 1.539-1.005 1.99a.86.86 0 00-.144 1.23l.082.083c.328.39.944.471 1.333.164 1.026-.8 1.682-2.072 1.682-3.467s-.635-2.626-1.64-3.446z"/><path d="M23.533 9.776c-.41-.328-1.005-.246-1.354.144-.328.41-.287 1.025.124 1.354 1.353 1.128 2.235 2.81 2.235 4.697s-.882 3.59-2.235 4.698c-.41.328-.452.943-.124 1.353.329.41.944.493 1.354.165a7.958 7.958 0 002.975-6.195 8.03 8.03 0 00-2.975-6.216zm-7.959-1.497l-4.984 3.836H8.149c-.636 0-1.149.513-1.149 1.148v5.416c0 .636.513 1.149 1.149 1.149h2.44l5.006 3.835a1.32 1.32 0 002.133-1.066V9.325c0-1.087-1.272-1.723-2.154-1.046z"/></g></g></svg>