<svg xmlns="http://www.w3.org/2000/svg" width="14" height="14"><path d="M13.364 9.545c-.382 0-.637.255-.637.637v2.545H1.273V9.545c0-.381-.255-.636-.637-.636-.381 0-.636.255-.636.636v3.819c0 .381.255.636.636.636h12.728c.381 0 .636-.255.636-.636v-3.182c0-.382-.255-.637-.636-.637zM4.455 3.818c.19 0 .318-.063.445-.19l1.464-1.464V7c0 .382.254.636.636.636s.636-.254.636-.636V2.164L9.1 3.627a.683.683 0 00.445.191.687.687 0 00.446-.19.617.617 0 000-.892L7.445.191c-.063-.064-.127-.127-.19-.127-.128-.064-.319-.064-.51 0-.063.063-.127.063-.19.127L4.009 2.736a.616.616 0 000 .891.576.576 0 00.446.191z" fill="#75B9D7"/></svg>