<svg xmlns="http://www.w3.org/2000/svg" width="85" height="88"><path d="M52.136 67.833c1.464 0 2.65-1.231 2.65-2.75 0-1.52-1.186-2.75-2.65-2.75s-2.651 1.23-2.651 2.75c0 1.519 1.187 2.75 2.65 2.75zm0-3.667c.488 0 .883.41.883.917 0 .506-.395.916-.883.916s-.884-.41-.884-.916c0-.507.396-.917.884-.917zm-22.975 5.5c1.464 0 2.65-1.231 2.65-2.75s-1.186-2.75-2.65-2.75-2.651 1.231-2.651 2.75 1.187 2.75 2.65 2.75zm0-3.667c.488 0 .883.41.883.917 0 .506-.395.917-.883.917s-.884-.41-.884-.917c0-.506.396-.917.884-.917zM10.604 46.62c.12.21.151.463.088.698a.902.902 0 01-.424.55.868.868 0 01-1.16-.373.937.937 0 01.294-1.223.833.833 0 01.672-.09.87.87 0 01.53.438zm73.75-.66l-15.005-8.928-6.963-4.034a5.994 5.994 0 00-3.075-.843 6.127 6.127 0 00-3.252.953l-10.515 6.674-9.915-5.335a6.009 6.009 0 00-5.85.091l-16.842 9.717a.92.92 0 00-.493.796c-.01.34.163.656.448.824a.855.855 0 00.91-.025l11.683-6.728 1.449 1.32a4.076 4.076 0 002.722 1.063 4.134 4.134 0 001.767-.44h.124a2.33 2.33 0 012.12 0c.551.28 1.155.43 1.768.44a4.042 4.042 0 002.916-1.246l1.343-1.394 3.94 2.109-15.622 10.028a.972.972 0 00-.407.587.932.932 0 00.106.678c.259.43.8.567 1.22.312L50.139 38.92l.353.385a6.648 6.648 0 006.928 1.705 4.697 4.697 0 011.573-.275c.534.003 1.064.09 1.573.257l.53.183c.687.25 1.41.374 2.138.367a6.597 6.597 0 004.048-1.393l1.466-1.155 14.139 8.36V77l-5.302-.275V64.166h2.651a.887.887 0 00.822-.603.938.938 0 00-.256-1.01l-10.604-9.167a.815.815 0 00-.39-.22H52.137a.658.658 0 00-.318 0h-.248l-10.604 9.167a.938.938 0 00-.256 1.01c.126.359.453.6.822.603h2.65V76.78h-.936c-2.068.128-4.118.275-6.132.44v-9.387h2.65a.886.886 0 00.822-.604.94.94 0 00-.256-1.01l-10.604-9.167h-.247a.684.684 0 00-.318 0H11.488a.82.82 0 00-.566.22l-9.155 7.682V52.781l4.754-2.732a.92.92 0 00.493-.796.924.924 0 00-.447-.824.858.858 0 00-.912.025L.46 51.442a.94.94 0 00-.46.807v34.834c.01.502.4.907.884.917h83.063c.484-.01.875-.415.884-.917V46.75a.904.904 0 00-.442-.789h-.035zm-47.1-7.076a2.309 2.309 0 01-1.66.715 2.217 2.217 0 01-1.06-.257 4.053 4.053 0 00-3.677 0h-.123a2.174 2.174 0 01-1.06.257 2.322 2.322 0 01-1.556-.605l-.972-.899 3.535-2.016a4.22 4.22 0 012.138-.587 4.462 4.462 0 012.032.513l3.394 1.834-.99 1.045zm29.18-.275a4.848 4.848 0 01-2.987 1.026 4.643 4.643 0 01-1.573-.275l-.53-.165a6.418 6.418 0 00-4.277 0c-.51.167-1.04.254-1.573.257a4.899 4.899 0 01-3.535-1.522l5.108-3.282a4.375 4.375 0 012.315-.678 4.27 4.27 0 012.191.605l5.797 3.429-.937.605zm-29.32 27.207l.212.183h-.212v-.183zM69.49 54.999l8.483 7.334H63.058l-8.483-7.334H69.49zm2.704 14.942a.818.818 0 00-.619-.275h-7.07c-.483.01-.873.415-.883.917v5.775H60.09V62.149l2.085 1.834a.814.814 0 00.566.22h13.254V76.65l-3.534-.128v-5.94a.881.881 0 00-.265-.642zM70.692 71.5v4.95h-5.301V71.5h5.301zM45.95 60.628l6.186-5.354 6.185 5.354v15.785h-3.534v-3.997c-.01-.502-.4-.907-.884-.916h-3.535c-.484.01-.874.414-.883.916v4.254l-3.535.183V60.628zm7.07 12.705v3.208h-1.768v-3.208h1.767zm-9.05-11l.213-.184v.184h-.212zM29.16 58.94l6.186 5.353v13.31c-1.184.11-2.368.202-3.534.33v-3.666c-.01-.502-.4-.907-.884-.917h-3.535c-.484.01-.874.415-.883.917v4.253l-3.535.422V64.276l6.186-5.335zm.884 16.225v2.952l-1.767.183v-3.135h1.767zm-18.238-16.5h14.916l-8.483 7.333H3.323l8.483-7.333zm5.602 14.942a.818.818 0 00-.619-.275H9.72c-.484.01-.874.414-.883.917v6.783l-3.535.605V67.833h13.255a.814.814 0 00.565-.22l2.086-1.834v13.33l-3.535.494V74.25a.874.874 0 00-.265-.642zm-1.502 1.558v4.73c-1.803.257-3.57.532-5.302.825v-5.555h5.302zM1.767 67.833h1.768v14.153l-1.768.33V67.834zm81.297 18.334H1.767v-1.98a321.13 321.13 0 0141.585-5.354c7.07-.44 13.803-.642 20.271-.642 6.84 0 13.326.22 19.44.587v7.389zM16.789 25.665c5.369 0 9.72-4.515 9.72-10.084S22.159 5.498 16.79 5.498c-5.368 0-9.72 4.514-9.72 10.083 0 5.57 4.352 10.084 9.72 10.084zM11.17 9.75c2.68-2.772 6.875-3.194 10.019-1.01 3.144 2.186 4.364 6.37 2.913 9.996-1.451 3.626-5.169 5.684-8.88 4.917-3.712-.767-6.384-4.147-6.384-8.073-.006-2.189.834-4.289 2.332-5.83zM6.01 7.588c-2.838 4.074-3.307 9.431-1.222 13.97 2.085 4.538 6.391 7.534 11.23 7.813 4.838.279 9.438-2.204 11.995-6.475a.875.875 0 01.781-.431.88.88 0 01.751.485c.149.29.137.64-.03.918-2.918 4.796-8.118 7.569-13.576 7.24-5.458-.33-10.313-3.71-12.675-8.825-2.363-5.116-1.86-11.158 1.313-15.777a.866.866 0 011.237-.202.941.941 0 01.195 1.284zM29.656 18.9c.256-1.086.386-2.2.388-3.319.001-4.72-2.333-9.112-6.182-11.631-3.848-2.52-8.674-2.814-12.781-.78a.857.857 0 01-.68.036.897.897 0 01-.504-.477.927.927 0 01-.034-.698.887.887 0 01.458-.512c4.654-2.303 10.121-1.97 14.483.885 4.361 2.853 7.007 7.828 7.008 13.177a16.334 16.334 0 01-.442 3.759c-.117.506-.608.818-1.096.696-.488-.121-.789-.63-.672-1.136h.054zM8.642 3.554a.96.96 0 01-.141 1.302.847.847 0 01-.649.199.861.861 0 01-.588-.346.915.915 0 01-.192-.672.909.909 0 01.333-.611.862.862 0 011.237.128zm53.214 19.36v.918h2.65c.489 0 .885.41.885.916s-.396.917-.884.917h-5.302c-.488 0-.884-.41-.884-.917 0-.506.396-.916.884-.916h.884v-.917c-.016-2.316-1.694-4.256-3.911-4.522-2.218-.266-4.278 1.226-4.802 3.477a.962.962 0 01-.548.66.825.825 0 01-.813-.11 2.445 2.445 0 00-1.414-.422c-1.119.009-2.114.74-2.492 1.834h4.26c.487 0 .883.41.883.916s-.396.917-.884.917h-8.836c-.488 0-.884-.41-.884-.917 0-.506.396-.916.884-.916h2.74c.42-2.135 2.23-3.668 4.33-3.667.468.004.933.085 1.378.238 1.151-2.805 4.046-4.382 6.926-3.773 2.88.61 4.948 3.236 4.95 6.285zM84.83 8.249c0 .506-.396.916-.884.916h-5.302c-.488 0-.883-.41-.883-.916 0-.507.395-.917.883-.917h.884v-.917c-.015-2.315-1.693-4.255-3.91-4.521-2.218-.266-4.278 1.225-4.803 3.476a.96.96 0 01-.548.66.82.82 0 01-.813-.11 2.441 2.441 0 00-1.413-.421c-1.12.008-2.114.74-2.492 1.833h4.259c.488 0 .883.41.883.917 0 .506-.395.916-.883.916h-8.837c-.488 0-.883-.41-.883-.916 0-.507.395-.917.883-.917h2.74c.42-2.134 2.23-3.667 4.33-3.667.468.005.933.085 1.378.239C70.572 1.098 73.467-.48 76.346.13c2.88.609 4.949 3.236 4.95 6.284v.917h2.651c.235 0 .46.097.625.269a.931.931 0 01.259.648zM38.616 82.775c.276.303.31.766.08 1.108a.832.832 0 01-1.03.306.888.888 0 01-.497-.985.855.855 0 01.828-.704.816.816 0 01.619.275zm7.069 0c.277.303.31.766.08 1.108a.832.832 0 01-1.03.306.888.888 0 01-.497-.985.855.855 0 01.828-.704.816.816 0 01.619.275zm5.302-1.834c.277.304.31.766.08 1.109a.83.83 0 01-1.03.305.886.886 0 01-.497-.984.856.856 0 01.828-.705.816.816 0 01.619.275zm7.07 1.834c.276.303.31.766.08 1.108a.833.833 0 01-1.031.306.889.889 0 01-.497-.985.856.856 0 01.829-.704.815.815 0 01.618.275zm-26.51 0c.276.303.31.766.08 1.108a.832.832 0 01-1.03.306.89.89 0 01-.498-.985.856.856 0 01.829-.704.819.819 0 01.619.275z" fill="#BDD17C"/></svg>