<svg xmlns="http://www.w3.org/2000/svg" width="86" height="62" viewBox="0 0 86 62">
    <g fill="none" fill-rule="evenodd">
        <g fill="#192752" fill-rule="nonzero">
            <g>
                <g>
                    <g>
                        <g>
                            <path d="M54.217.335v7.403h1.87V.335h-1.87zM43.234 4.817L41.919 6.12l5.288 5.234 1.314-1.302-5.287-5.234zm23.807 0l-5.287 5.234 1.315 1.302 5.287-5.234-1.315-1.302zm-11.889 5.697c-4.119 0-7.507 3.326-7.507 7.403 0 4.078 3.388 7.374 7.507 7.374 4.12 0 7.478-3.296 7.478-7.374 0-4.077-3.359-7.403-7.478-7.403zm0 1.822c3.109 0 5.58 2.504 5.58 5.581 0 3.078-2.471 5.552-5.58 5.552-3.108 0-5.609-2.474-5.609-5.552 0-3.077 2.5-5.581 5.61-5.581zm-17.76 4.656v1.85h7.478v-1.85H37.39zm28.043 0v1.85h7.478v-1.85h-7.478zm-18.228 7.46l-5.288 5.235 1.315 1.301 5.287-5.234-1.314-1.301zm15.862 0l-1.315 1.302 5.287 5.234 1.315-1.301-5.287-5.234zM3.564 26.13c-.978.607-1.824 1.716-2.57 3.441-.192.447.045 1.025.496 1.215.451.189 1.036-.046 1.227-.492.655-1.514 1.328-2.256 1.84-2.574.512-.318.886-.298 1.315-.144.78.335 1.218.862 1.606 1.503.007.48.45.913.935.913.485 0 .928-.432.935-.913.285-.74.99-1.14 1.577-1.503.43-.154.803-.174 1.315.144.512.318 1.185 1.06 1.84 2.574.191.447.776.68 1.227.492.451-.19.688-.768.497-1.215-.747-1.724-1.593-2.834-2.571-3.441-.978-.608-2.065-.626-2.921-.318-.82.294-1.43.856-1.899 1.388-.47-.538-1.1-1.09-1.928-1.388-1.073-.364-2.02-.064-2.921.318zm18.696 0c-.978.607-1.825 1.716-2.571 3.441-.191.447.045 1.025.496 1.215.452.189 1.036-.046 1.227-.492.656-1.514 1.329-2.256 1.84-2.574.513-.318.886-.298 1.315-.144.781.335 1.22.862 1.607 1.503.006.48.45.913.935.913.485 0 .928-.432.934-.913.285-.74.991-1.14 1.578-1.503.429-.154.802-.174 1.314.144.512.318 1.185 1.06 1.84 2.574.192.447.776.68 1.228.492.45-.19.688-.768.496-1.215-.746-1.724-1.593-2.834-2.57-3.441-.978-.608-2.065-.626-2.922-.318-.82.294-1.429.856-1.898 1.388-.471-.538-1.1-1.09-1.928-1.388-1.073-.364-2.02-.064-2.921.318zm31.957 1.966V35.5h1.87v-7.403h-1.87zm-41.305 5.437c-.978.607-1.824 1.716-2.571 3.441-.191.447.045 1.025.497 1.215.45.189 1.035-.046 1.227-.492.655-1.514 1.328-2.256 1.84-2.574.512-.318.885-.298 1.314-.144.781.335 1.22.862 1.607 1.503.007.48.45.913.935.913.485 0 .928-.432.935-.913.285-.74.99-1.14 1.577-1.503.43-.154.803-.174 1.315.144.512.318 1.184 1.06 1.84 2.574.191.447.776.68 1.227.492.451-.19.688-.768.496-1.215-.746-1.725-1.592-2.834-2.57-3.441-.978-.608-2.065-.626-2.921-.318-.82.294-1.43.855-1.9 1.388-.47-.538-1.1-1.09-1.927-1.388-1.073-.364-2.02-.064-2.921.318zm5.784 13.07c-3.455-.068-6.399 2.736-9.348 2.777-3.318-.165-6.44-1.825-9.348-1.851v1.85c3.325.127 6.432 1.824 9.348 1.852 3.446.009 6.372-2.737 9.348-2.777 3.56.414 6.21 3.643 9.347 3.702 3.627.039 6.24-3.645 9.348-3.702 3.561.414 6.212 3.643 9.348 3.702 3.627.039 6.24-3.645 9.348-3.702 3.56.414 6.211 3.643 9.348 3.702 3.626.039 6.239-3.645 9.348-3.702 3.56.414 6.21 3.643 9.347 3.702v-1.85c-3.554-.44-6.219-3.645-9.347-3.702-3.638-.1-6.271 3.643-9.348 3.701-3.554-.438-6.22-3.644-9.348-3.701-3.638-.1-6.27 3.643-9.348 3.701-3.554-.438-6.22-3.644-9.348-3.701-3.637-.1-6.27 3.643-9.348 3.701-3.554-.438-6.219-3.644-9.347-3.701zm1.87 9.254c-3.455-.068-6.4 2.735-9.349 2.776-3.318-.164-6.44-1.824-9.347-1.85v1.85c3.324.127 6.431 1.823 9.347 1.851 3.447.01 6.372-2.736 9.348-2.776 3.561.414 6.211 3.643 9.348 3.702 3.627.038 6.24-3.646 9.348-3.702 3.56.414 6.211 3.643 9.348 3.702 3.626.038 6.239-3.646 9.348-3.702 3.56.414 6.21 3.643 9.347 3.702 3.627.038 6.24-3.646 9.348-3.702 3.56.414 6.211 3.643 9.348 3.702v-1.851c-3.554-.439-6.22-3.645-9.348-3.702-3.637-.099-6.27 3.644-9.348 3.702-3.554-.439-6.22-3.645-9.347-3.702-3.638-.099-6.271 3.644-9.348 3.702-3.555-.439-6.22-3.645-9.348-3.702-3.638-.099-6.27 3.644-9.348 3.702-3.554-.439-6.22-3.645-9.348-3.702z" transform="translate(-197 -2024) translate(132 1942) translate(63 82) translate(2)"/>
                        </g>
                    </g>
                </g>
            </g>
        </g>
    </g>
</svg>
