<svg xmlns="http://www.w3.org/2000/svg" width="86" height="37" viewBox="0 0 86 37">
    <g fill="none" fill-rule="evenodd">
        <g fill="#192752" fill-rule="nonzero">
            <g>
                <g>
                    <g>
                        <g>
                            <path d="M81.963 16.147H68.45c-1.843 0-3.335 1.492-3.335 3.335v7.634c0 1.492.966 2.72 2.37 3.16v2.544c0 .351.263.615.614.615h1.404c.351 0 .614-.264.614-.615v-2.369h10.268v2.37c0 .35.263.614.614.614h1.404c.351 0 .614-.264.614-.615v-2.544c1.317-.44 2.37-1.668 2.37-3.16v-7.634c-.088-1.843-1.58-3.335-3.423-3.335zm1.58 10.97c0 .877-.702 1.579-1.58 1.579H68.45c-.878 0-1.58-.702-1.58-1.58v-2.983h16.674v2.983zm0-4.652H66.869v-2.983c0-.878.702-1.58 1.58-1.58h13.514c.878 0 1.58.702 1.58 1.58v2.983z" transform="translate(-438 -2049) translate(132 1942) translate(296 107) translate(10)"/>
                            <path d="M73.714 19.306H76.698V21.061H73.714zM73.627 25.537H76.61099999999999V27.291999999999998H73.627zM59.761 21.588h-.614V7.547C59.147 3.86 56.163.79 52.39.79H12.286C8.6.79 5.529 3.773 5.529 7.547v14.129h-.615c-2.281 0-4.212 1.842-4.212 4.212v2.194c0 .877.702 1.58 1.58 1.58H5.09v5.703c0 .351.263.702.702.702H7.02c.351 0 .702-.263.702-.702v-5.704h49.143v5.704c0 .351.264.702.702.702h1.317c.35 0 .702-.263.702-.702v-5.704h2.72c.878 0 1.58-.702 1.58-1.58V25.8c0-2.282-1.843-4.212-4.125-4.212zM7.284 7.547c0-2.72 2.194-5.002 5.002-5.002H52.39c2.72 0 5.002 2.194 5.002 5.002v14.129h-2.37v-2.72c0-2.195-1.755-4.038-4.036-4.038h-1.404v-3.51c0-2.106-1.755-3.861-3.862-3.861h-6.669c-2.106 0-3.861 1.755-3.861 3.861v3.51h-5.704v-3.51c0-2.106-1.755-3.861-3.862-3.861h-6.669c-2.106 0-3.861 1.755-3.861 3.861v3.51H13.69c-2.194 0-4.037 1.755-4.037 4.037v2.72h-2.37V7.548zM27.73 14.83H16.849v-3.51c0-1.141.965-2.107 2.106-2.107h6.67c1.14 0 2.106.966 2.106 2.106v3.51zm23.255 1.755c1.228 0 2.281 1.053 2.281 2.281v2.72H11.408v-2.72c0-1.228 1.053-2.281 2.282-2.281h37.296zm-3.16-1.755H36.946v-3.51c0-1.141.965-2.107 2.106-2.107h6.67c1.14 0 2.106.966 2.106 2.106v3.51zm14.305 13.075H2.457V25.8c0-1.316 1.053-2.457 2.457-2.457h54.847c1.317 0 2.457 1.053 2.457 2.457v2.106h-.087z" transform="translate(-438 -2049) translate(132 1942) translate(296 107) translate(10)"/>
                        </g>
                    </g>
                </g>
            </g>
        </g>
    </g>
</svg>
