<svg xmlns="http://www.w3.org/2000/svg" width="63" height="54" viewBox="0 0 63 54">
    <g fill="none" fill-rule="evenodd">
        <g fill="#192752" fill-rule="nonzero">
            <g>
                <g>
                    <g>
                        <g>
                            <path d="M56.939 46.63H4.935C2.215 46.63 0 44.408 0 41.676V4.955C0 2.224 2.214 0 4.935 0H56.97c2.72 0 4.935 2.224 4.935 4.955v36.752c-.032 2.7-2.246 4.924-4.966 4.924zM4.935 1.907c-1.677 0-3.037 1.366-3.037 3.05v36.751c0 1.684 1.36 3.05 3.037 3.05H56.97c1.677 0 3.037-1.366 3.037-3.05V4.955c0-1.683-1.36-3.05-3.037-3.05H4.935z" transform="translate(-448 -2182) translate(132 1942) translate(244 240) translate(72.5) translate(.484)"/>
                            <path d="M60.924 36.784H.95c-.538 0-.949-.413-.949-.953s.411-.953.949-.953h60.007c.538 0 .95.413.95.953s-.444.953-.982.953zM30.937 38.944c1.012 0 1.834.825 1.834 1.842 0 1.016-.822 1.842-1.834 1.842-1.013 0-1.835-.826-1.835-1.842 0-1.017.822-1.842 1.835-1.842zM41.818 54H20.055c-.538 0-.949-.413-.949-.953s.411-.953.95-.953h21.73c.538 0 .95.413.95.953s-.412.953-.918.953z" transform="translate(-448 -2182) translate(132 1942) translate(244 240) translate(72.5) translate(.484)"/>
                            <path d="M37.516 54h-13.19c-.538 0-.95-.413-.95-.953v-7.37c0-.54.412-.952.95-.952h13.19c.538 0 .95.413.95.953v7.37c0 .54-.412.952-.95.952zm-12.21-1.906H36.6v-5.463H25.306v5.463z" transform="translate(-448 -2182) translate(132 1942) translate(244 240) translate(72.5) translate(.484)"/>
                        </g>
                    </g>
                </g>
            </g>
        </g>
    </g>
</svg>
