<svg xmlns="http://www.w3.org/2000/svg" width="59" height="60" viewBox="0 0 59 60">
    <g fill="none" fill-rule="evenodd">
        <g fill="#192752" fill-rule="nonzero">
            <g>
                <g>
                    <g>
                        <path d="M58.5.877c0-.485-.408-.877-.91-.877H1.41C.909 0 .5.392.5.877v54.138c0 .485.408.878.91.878h2.044v3.23c0 .485.408.877.91.877h15.587c.502 0 .91-.392.91-.877v-3.23H38.14v3.23c0 .485.408.877.91.877h15.586c.503 0 .911-.392.911-.877v-3.23h2.043c.503 0 .911-.393.911-.878V.877zM2.321 10.552h3.77v5.357h-3.77v-5.357zm0 14.716h3.77v5.357h-3.77v-5.357zm0 14.716h3.77v5.357h-3.77v-5.357zM19.04 58.245H5.275v-2.352H19.04v2.352zm34.685 0H39.96v-2.352h13.765v2.352zm2.954-4.107H2.32v-7.042h4.681c.503 0 .91-.393.91-.878v-7.111c0-.485-.407-.878-.91-.878h-4.68v-5.85h4.68c.503 0 .91-.392.91-.877v-7.111c0-.485-.407-.878-.91-.878h-4.68v-5.85h4.68c.503 0 .91-.392.91-.877V9.675c0-.485-.407-.878-.91-.878h-4.68V1.755h54.357v52.383z" transform="translate(-691 -2025) translate(132 1942) translate(501 83) translate(58)"/>
                        <path d="M12.397 47h34.206c.495 0 .897-.4.897-.893V10.893c0-.493-.402-.893-.897-.893H12.397c-.495 0-.897.4-.897.893v35.214c0 .493.402.893.897.893zm.897-35.213h32.412v33.426H13.294V11.787z" transform="translate(-691 -2025) translate(132 1942) translate(501 83) translate(58)"/>
                        <path d="M28.57 17h-4.14c-.514 0-.93.416-.93.93v4.14c0 .514.416.93.93.93h4.14c.514 0 .93-.416.93-.93v-4.14c0-.514-.416-.93-.93-.93zm-.93 4.14h-2.28v-2.28h2.28v2.28zM21.57 17h-4.14c-.514 0-.93.416-.93.93v4.14c0 .514.416.93.93.93h4.14c.514 0 .93-.416.93-.93v-4.14c0-.514-.416-.93-.93-.93zm-.93 4.14h-2.28v-2.28h2.28v2.28zM21.57 25h-4.14c-.514 0-.93.416-.93.93v4.14c0 .514.416.93.93.93h4.14c.514 0 .93-.416.93-.93v-4.14c0-.514-.416-.93-.93-.93zm-.93 4.14h-2.28v-2.28h2.28v2.28zM28.57 25h-4.14c-.514 0-.93.416-.93.93v4.14c0 .514.416.93.93.93h4.14c.514 0 .93-.416.93-.93v-4.14c0-.514-.416-.93-.93-.93zm-.93 4.14h-2.28v-2.28h2.28v2.28zM39 17c-3.033 0-5.5 2.307-5.5 5.143 0 2.046 1.271 3.843 3.218 4.67v11.052C36.718 39.042 37.74 40 39 40c1.259 0 2.283-.958 2.283-2.135V26.813c1.946-.827 3.217-2.624 3.217-4.67C44.5 19.307 42.033 17 39 17zm.413 20.865c0 .21-.189.387-.413.387-.224 0-.413-.177-.413-.387V21.916c0-.21.19-.387.413-.387.224 0 .413.177.413.387v15.95zm1.87-13.09v-2.859c0-1.177-1.024-2.135-2.283-2.135s-2.282.958-2.282 2.135v2.86c-.833-.63-1.349-1.58-1.349-2.633 0-1.872 1.63-3.395 3.631-3.395 2.002 0 3.63 1.523 3.63 3.395 0 1.053-.514 2.003-1.347 2.633z" transform="translate(-691 -2025) translate(132 1942) translate(501 83) translate(58)"/>
                    </g>
                </g>
            </g>
        </g>
    </g>
</svg>
