<svg xmlns="http://www.w3.org/2000/svg" width="62" height="62" viewBox="0 0 62 62">
    <g fill="none" fill-rule="evenodd">
        <g fill="#192752" fill-rule="nonzero">
            <g>
                <g>
                    <g>
                        <path d="M60.852 31.554c-.03-.022-.062-.042-.095-.06L31.937 15.27v-.113c0-1.98.924-2.712 2.765-4.173l.126-.1c1.824-1.449 2.657-3.78 2.174-6.082-.484-2.31-2.37-4.187-4.692-4.67-1.857-.384-3.751.07-5.196 1.245-1.432 1.166-2.253 2.89-2.253 4.73 0 .52.42.94.94.94.518 0 .938-.42.938-.94 0-1.272.57-2.465 1.561-3.273 1.003-.817 2.325-1.13 3.628-.86 1.603.332 2.902 1.623 3.236 3.213.336 1.602-.24 3.221-1.505 4.225l-.125.1c-1.941 1.54-3.475 2.758-3.476 5.644v.114L1.246 31.494c-.032.018-.063.038-.094.06-.984.721-1.377 1.838-1.025 2.915.401 1.227 1.662 2.052 3.137 2.052h9v20.895l-.001.005v.952c0 2 1.908 3.627 4.252 3.627H45.48c2.344 0 4.251-1.627 4.251-3.627V36.52h8.995c1.48 0 2.746-.827 3.148-2.06.352-1.074-.04-2.188-1.021-2.907zm-13 4.005c0 .008-.005.015-.005.023s.005.014.005.022v20.877h-33.71V34.87c0-.948 1.087-1.748 2.373-1.748H45.48c1.286 0 2.373.8 2.373 1.748v.689zm-2.373 24.562H16.515c-1.286 0-2.373-.8-2.373-1.748v-.012h33.71v.012c0 .947-1.087 1.748-2.373 1.748zm14.609-26.244c-.125.38-.595.765-1.363.765h-9.022c-.14-1.893-1.971-3.4-4.224-3.4H16.515c-2.253 0-4.084 1.507-4.224 3.4H3.264c-.763 0-1.228-.38-1.352-.757-.114-.351.097-.617.31-.785l28.775-16.202L59.781 33.1c.212.166.42.43.307.777z" transform="translate(-209 -2174) translate(132 1942) translate(21 232) translate(56)"/>
                    </g>
                </g>
            </g>
        </g>
    </g>
</svg>
