<svg xmlns="http://www.w3.org/2000/svg" width="62" height="52" viewBox="0 0 62 52">
    <g fill="none" fill-rule="evenodd">
        <g fill="#192752" fill-rule="nonzero">
            <g>
                <g>
                    <g>
                        <g>
                            <path d="M31 .362C19.431.362 8.815 4.347.535 10.78c-.588.461-.714 1.43-.264 2.033.45.604 1.394.733 1.982.271 7.804-6.061 17.81-9.83 28.747-9.83 10.938 0 20.943 3.769 28.747 9.83.588.462 1.532.333 1.982-.27.45-.604.324-1.573-.264-2.034C53.185 4.347 42.569.362 31 .362zm.5 13c-8.236 0-15.914 2.529-21.884 7.413-.658.431-.822 1.47-.33 2.087.492.618 1.528.673 2.081.11 5.424-4.438 12.462-6.769 20.133-6.769 7.67 0 14.71 2.331 20.133 6.77.553.562 1.589.507 2.08-.11.493-.619.329-1.657-.33-2.088-5.969-4.884-13.647-7.413-21.883-7.413zm-.5 13c-5.031 0-9.81 1.58-13.486 4.499-.579.46-.688 1.405-.23 1.986.459.58 1.403.69 1.982.23C22.404 30.585 26.562 29.17 31 29.17s8.596 1.414 11.734 3.906c.579.46 1.523.35 1.982-.23.458-.58.349-1.527-.23-1.986C40.81 27.94 36.03 26.362 31 26.362zm0 12c-3.85 0-7 3.15-7 7s3.15 7 7 7 7-3.15 7-7-3.15-7-7-7zm0 3c2.225 0 4 1.775 4 4s-1.775 4-4 4-4-1.775-4-4 1.775-4 4-4z" transform="translate(-689 -2183) translate(132 1942) translate(546 240) translate(11) translate(0 .638)"/>
                        </g>
                    </g>
                </g>
            </g>
        </g>
    </g>
</svg>
