<svg xmlns="http://www.w3.org/2000/svg" width="120" height="120"><g fill="none" fill-rule="evenodd"><circle cx="60" cy="60" r="58.75" fill="#75B9D7" stroke="#FFF" stroke-width="2.5"/><g fill="#FFF" fill-rule="nonzero"><path d="M29.166 42.075a1 1 0 01-1.104-1.498c4.552-7.261 11.565-6.515 15.24-5.476-1.69-2.017-4.955-3.44-6.39-3.9a.998.998 0 01-.084-1.872c8.015-3.4 14.29-.028 17.16 7.297 7.438-2.143 13.862.306 15.695 8.29a.998.998 0 01-1.534 1.052c-.042-.028-3.28-2.186-6.787-2.444 1.913 1.173 4.225 3.068 5.438 5.83 1.2 2.733 1.095 5.766-.315 9.013-.16.37-.527.588-.933.6a.997.997 0 01-.914-.63c-.028-.072-2.552-6.246-8.39-8.1 1.21 1.878 2.05 4.928.095 9.374a1.01 1.01 0 01-.966.596 1.001 1.001 0 01-.901-.692c-.57-1.765-2.64-6.63-5.337-7.938-2.255 3.014-7.504 14.256-5.502 30.45 17.558-4.265 41.408-.973 48.16 7.938a.999.999 0 11-1.593 1.208c-7.496-9.891-40.081-12.343-55.457-3.712l-.013.007c-2.147 1.207-3.81 2.573-4.813 4.068a1 1 0 01-1.66-1.116c1.099-1.637 2.834-3.125 5.05-4.435-.572-23.623 10.273-36.84 10.352-36.977-4.201-1.66-8.998 2.13-9.046 2.169a1 1 0 01-1.628-.754c-.122-4.8 3.862-6.965 8.624-7.387-4.187-3.082-12.356-.985-12.447-.961zm15.533 1.36c.455.705-.114 1.61-.901 1.542-2.87-.201-7.243.62-8.444 3.34 2.12-1.173 5.625-2.516 9.034-1.171 1.286.494 1.72 2.094.838 3.156-.104.124-10.168 12.39-9.935 34.629 1.886-.914 4.032-1.717 6.396-2.39-2.173-16.995 3.45-28.95 5.857-32.165a1.995 1.995 0 012.459-.588c2.479 1.189 4.285 4.25 5.33 6.5.943-4.71-2.285-6.593-2.44-6.68-.93-.507-.526-1.922.52-1.877 6.499.269 10.254 4.849 11.964 7.679.434-1.883.3-3.64-.4-5.24-1.891-4.321-7.31-6.256-7.363-6.275a1 1 0 01-.006-1.887C61.014 40.8 64.7 41.99 67 43.062c-2.346-5.47-8.321-6.182-13.268-4.248a1.002 1.002 0 01-1.321-.658c-1.668-5.631-6.216-9.342-12.354-7.814 2.376 1.159 5.645 3.279 6.218 6.366a1 1 0 01-1.435 1.075c-.358-.181-8.095-3.966-13.546 1.849 3.743-.541 10.456-.757 13.405 3.804zm41.626-6.431c-1.654 0-3 1.346-3 3a1 1 0 11-2 0c0-1.654-1.346-3-3-3a1 1 0 110-2c1.634 0 3.087.788 4 2.003a4.997 4.997 0 014-2.003 1 1 0 110 2zm3 10.5c-2.206 0-4 1.794-4 4a1 1 0 11-2 0c0-2.206-1.794-4-4-4a1 1 0 110-2 5.997 5.997 0 015 2.687 6 6 0 015-2.687 1 1 0 110 2z"/><path d="M88.472 76.308a1 1 0 01-.953.699H74.228a.998.998 0 01-.953-.7l-2.061-6.52a1 1 0 01.953-1.302h7.706v-8.478a1 1 0 011-1c3.079 0 5.585 2.888 5.585 6.437v3.042h3.12a.999.999 0 01.953 1.302l-2.06 6.52zm-4.014-10.864c0-2.017-1.093-3.725-2.585-4.261v7.304h2.585v-3.043zm-10.926 5.043l1.428 4.52h11.826l1.428-4.52H73.532zm-15.479-2.362a1 1 0 110-2h2a1 1 0 110 2h-2zm4.516 7.929a1 1 0 110-2h2a1 1 0 110 2h-2zm26.756 5.115a1 1 0 110 2h-2a1 1 0 110-2h2zM48.607 70.01a1 1 0 110-2h2a1 1 0 010 2h-2zm24.56-5.617h-3a1 1 0 110-2h3a1 1 0 110 2zm-20.56 10.563a1 1 0 110-2h3a1 1 0 110 2h-3z"/></g></g></svg>