<svg xmlns="http://www.w3.org/2000/svg" width="124" height="124"><g transform="translate(2 2)" fill="none" fill-rule="evenodd"><circle cx="60" cy="60" r="60" fill="#75B9D7" stroke="#FFF" stroke-width="2.5"/><g fill="#FFF" fill-rule="nonzero"><path d="M91 59.789h-9.707V43.227l3.621 2.423a.999.999 0 101.112-1.662l-25.13-16.819a.997.997 0 00-1.112 0l-25.13 16.819a1 1 0 101.112 1.662l2.947-1.973v16.112H29a1 1 0 000 2h3.633V90a1 1 0 001 1h52.734a1 1 0 001-1V61.789H91a1 1 0 000-2zm-50.287-17.45L60.34 29.203l18.954 12.685v17.901h-38.58v-17.45h-.001zM66.027 89H53.973V71.693h12.054V89zm19.34-24.259H71.721a1 1 0 000 2h13.646V89h-17.34V70.693a1 1 0 00-1-1H52.973a1 1 0 00-1 1V89h-17.34V66.741h13.805a1 1 0 000-2H34.633v-2.952h50.734v2.952z"/><path d="M70.077 52.998h-.739V45h.739a1 1 0 000-2H50.604a1 1 0 000 2h.739v7.998h-.739a1 1 0 000 2h19.473a1 1 0 000-2zm-2.739 0H61.34V45h5.998v7.998zM53.342 45h5.998v7.998h-5.998V45zm-5.039 28.842a1 1 0 000-2h-10a1 1 0 000 2h.501v6h-.501a1 1 0 000 2h10a1 1 0 000-2h-.501v-6h.501zm-2.501 6h-4.998v-6h4.998v6zm25.895 0a1 1 0 000 2h10a1 1 0 000-2h-.501v-6h.501a1 1 0 000-2h-10a1 1 0 000 2h.501v6h-.501zm2.501-6h4.998v6h-4.998v-6zM56.84 38.704h1a1 1 0 000-2h-1a1 1 0 000 2zm6 0h1a1 1 0 000-2h-1a1 1 0 000 2zm-5.505 42.643h1a1 1 0 000-2h-1a1 1 0 000 2z"/></g></g></svg>