<svg xmlns="http://www.w3.org/2000/svg" width="124" height="124"><g transform="translate(2 2)" fill="none" fill-rule="evenodd"><circle cx="60" cy="60" r="60" fill="#75B9D7" stroke="#FFF" stroke-width="2.5"/><g fill="#FFF" fill-rule="nonzero"><path d="M79.507 60.26a1 1 0 00-.869-.62.978.978 0 00-.934.517l-7.556 13.757-10.659-24.163v-4.396l9.812-3.754a1 1 0 000-1.868l-10.455-4c-.663-.252-1.357.265-1.357.934v13.085L45.16 77.7l-5.918-11.733a.986.986 0 00-.945-.548 1 1 0 00-.883.643l-9.35 24.58a1.001 1.001 0 00.934 1.355c49.641.005 56.643.002 62.002.002a1 1 0 00.926-1.378L79.507 60.26zm-1.058 2.696l3.783 9.247-1.291 1.291-2.293-2.293a.999.999 0 00-1.414 0l-2.293 2.293-1.472-1.472 4.98-9.066zm-36.527 27.04l10.085-22.863 1.915 1.921a1 1 0 00.708.294h.001c.265 0 .52-.105.707-.293l3.152-3.152 3.143 3.151a1 1 0 001.415.001l1.923-1.923 10.087 22.866c-5.054.003-28.082-.001-33.136-.002zm16.567-37.557l5.616 12.731-1.763 1.763-3.143-3.151a1 1 0 00-1.415-.001l-3.152 3.151-1.758-1.764 5.615-12.729zm1-9.226v-5.094l6.656 2.547-6.656 2.547zM38.477 68.892l3.764 7.462-.8.8-1.793-1.793a.999.999 0 00-1.414 0l-1.793 1.793-.802-.802 2.838-7.46zm-3.617 9.51l.874.874a.999.999 0 001.414 0l1.793-1.793 1.793 1.793a.997.997 0 001.414 0l1.041-1.042.926 1.835-4.379 9.927h-9.287l4.411-11.594zm42.384 11.596l-6.079-13.781 1.302-2.37 1.768 1.768a.999.999 0 001.414 0l2.293-2.293 2.293 2.293a.997.997 0 001.414 0l1.405-1.405 6.458 15.788H77.244zM31.821 40.001h10.335a3.826 3.826 0 003.822-3.822 3.794 3.794 0 00-2.524-3.594c.259-2.418-1.633-4.584-4.12-4.584a4.117 4.117 0 00-3.453 1.874c-1.909-.535-3.957.591-4.515 2.514-1.914.212-3.367 1.856-3.367 3.79a3.826 3.826 0 003.822 3.822zm.256-5.614c.284.038.573-.043.791-.229.218-.187.346-.458.351-.746.021-1.323 1.482-2.115 2.6-1.396a.998.998 0 001.491-.531 2.132 2.132 0 012.024-1.484c1.541 0 2.567 1.572 1.975 2.975a1 1 0 00.895 1.388 1.809 1.809 0 011.774 1.815 1.824 1.824 0 01-1.822 1.822H31.821a1.824 1.824 0 01-1.822-1.822c0-1.048.902-1.959 2.078-1.792zm46.603 6.166h9.319c2.206 0 4-1.794 4-4 0-2.328-1.986-4.071-4.023-3.997-.438-6.005-9.427-6.044-9.823.036a3.991 3.991 0 00-3.473 3.961c0 2.206 1.794 4 4 4zm.349-5.962a.996.996 0 00.88-.277c.23-.23.334-.559.279-.88a2.878 2.878 0 01.63-2.387c1.97-2.343 5.749-.456 5.101 2.508a1 1 0 001.346 1.143 1.993 1.993 0 012.734 1.854c0 1.103-.897 2-2 2H78.68c-1.103 0-2-.897-2-2a1.988 1.988 0 012.349-1.961zM40.386 51.712a4.997 4.997 0 00-4-2.003 1 1 0 000 2c1.654 0 3 1.346 3 3a1 1 0 002 0c0-1.654 1.346-3 3-3a1 1 0 000-2 4.994 4.994 0 00-4 2.003z"/><path d="M71.68 51.709c1.654 0 3 1.346 3 3a1 1 0 002 0c0-1.654 1.346-3 3-3a1 1 0 000-2 4.997 4.997 0 00-4 2.003 4.997 4.997 0 00-4-2.003 1 1 0 000 2z"/></g></g></svg>