<?xml version="1.0" encoding="UTF-8"?>
<svg width="24px" height="24px" viewBox="0 0 24 24" version="1.1" xmlns="http://www.w3.org/2000/svg" xmlns:xlink="http://www.w3.org/1999/xlink">
    <!-- Generator: sketchtool 55.2 (78181) - https://sketchapp.com -->
    <title>DC0A77C2-1C97-46E6-BAC0-367111AF0E9D</title>
    <desc>Created with sketchtool.</desc>
    <g id="vacation-villas" stroke="none" stroke-width="1" fill="none" fill-rule="evenodd">
        <g id="vacation-villas-filter" transform="translate(-1266.000000, -495.000000)" fill="#192752" fill-rule="nonzero">
            <g id="villa-list" transform="translate(473.000000, 390.000000)">
                <g id="villa-list-la-garconniere" transform="translate(0.000000, 41.000000)">
                    <g id="commodities-number" transform="translate(663.000000, 64.000000)">
                        <g id="bathroom-number" transform="translate(130.000000, 0.000000)">
                            <g id="noun_Bathroom_2711837">
                                <path d="M22.5881419,12.891709 L22.5881419,3.08278746 C22.5786528,3.03655344 22.5786528,2.988895 22.5881419,2.94266099 C22.5891793,1.34582735 21.3061932,0.0399701444 19.6979007,0.000897127269 C18.0896082,-0.0381758899 16.7437936,1.20381533 16.6661231,2.79878719 L16.6616096,2.79972746 C15.8281133,3.01955685 15.2476823,3.76817101 15.2470304,4.62418893 C15.2468806,4.73572691 15.2914538,4.84273936 15.3709129,4.92160869 C15.450372,5.00047803 15.5581846,5.04472048 15.6705566,5.04457178 L18.635235,5.04457178 C18.747607,5.04472048 18.8554196,5.00047803 18.9348787,4.92160869 C19.0143378,4.84273936 19.0589111,4.73572691 19.0587612,4.62418893 C19.0577213,3.71869911 18.4103785,2.94091499 17.5147089,2.76900594 C17.6080886,1.64591236 18.5774977,0.795937377 19.7118643,0.842546621 C20.846231,0.889155865 21.7415481,1.81574936 21.7410911,2.94266099 C21.7505802,2.988895 21.7505802,3.03655344 21.7410911,3.08278746 L21.7410911,12.891709 L1.41185815,12.891709 C0.70146719,12.8918144 0.101770127,13.4157781 0.0115408266,14.1151858 C-0.0786884734,14.8145935 0.368649211,15.4716356 1.05609273,15.6494062 L1.05821376,15.6498008 C1.3418553,17.0311124 2.62154908,22 6.35298997,22 L17.64701,22 C21.378444,22 22.6581533,17.031121 22.9417862,15.6498008 L22.9439073,15.6494062 C23.6313508,15.4716356 24.0786885,14.8145935 23.9884592,14.1151858 C23.8982299,13.4157781 23.2985328,12.8918144 22.5881419,12.891709 L22.5881419,12.891709 Z M18.1241827,4.20381123 L16.1816089,4.20381123 C16.3504127,3.82075859 16.7316755,3.57323701 17.1528958,3.57323701 C17.5741162,3.57323701 17.9553789,3.82075859 18.1241827,4.20381123 Z M17.64701,21.1592377 L6.35298997,21.1592377 C3.45695052,21.1592377 2.27207589,17.1497312 1.9373618,15.6942676 L22.0631983,15.6942676 C21.7299241,17.1494653 20.5481662,21.1592377 17.64701,21.1592377 L17.64701,21.1592377 Z M22.5881436,14.8535019 L1.41185815,14.8535019 C1.09998268,14.8535019 0.847157661,14.6025534 0.847157661,14.2929926 C0.847157661,13.9834319 1.09998268,13.7324833 1.41185815,13.7324833 L22.5881419,13.7324833 C22.9000173,13.7324833 23.1528423,13.9834319 23.1528423,14.2929926 C23.1528423,14.6025534 22.9000173,14.8535019 22.5881419,14.8535019 L22.5881436,14.8535019 Z" id="Shape"></path>
                                <path d="M8.52697078,23 L6.47302922,23 C6.21162795,23.0005571 6,23.2242515 6,23.5 C6,23.7757485 6.21162795,23.9994429 6.47302922,24 L8.52697078,24 C8.78837205,23.9994429 9,23.7757485 9,23.5 C9,23.2242515 8.78837205,23.0005571 8.52697078,23 L8.52697078,23 Z" id="Path"></path>
                                <path d="M17.5269708,23 L15.4730292,23 C15.211628,23.0005571 15,23.2242515 15,23.5 C15,23.7757485 15.211628,23.9994429 15.4730292,24 L17.5269708,24 C17.788372,23.9994429 18,23.7757485 18,23.5 C18,23.2242515 17.788372,23.0005571 17.5269708,23 L17.5269708,23 Z" id="Path"></path>
                                <path d="M2.43372561,13 C2.54880617,13.0001547 2.65921729,12.952319 2.74059144,12.8670446 C2.82196559,12.7817702 2.86761311,12.6660674 2.86745968,12.5454715 C2.86702206,11.0045126 3.79378533,9.63070134 5.18019795,9.11712482 C6.56661056,8.60354831 8.11138403,9.06181446 9.03518103,10.2607283 C9.5350995,10.9069017 9.80769759,11.7136138 9.80722432,12.5454715 C9.8072243,12.7078569 9.88989388,12.8579072 10.0240922,12.9390999 C10.1582906,13.0202926 10.3236297,13.0202926 10.4578281,12.9390999 C10.5920264,12.8579072 10.674696,12.7078569 10.674696,12.5454715 C10.6750233,11.8430182 10.5196114,11.1500904 10.2207167,10.5213342 C10.4786094,10.4066603 10.7559932,10.3479078 11.0361414,10.3486197 C12.1935996,10.3494904 13.1316974,11.3325471 13.1325283,12.5454771 C13.1325283,12.7078625 13.2151979,12.8579128 13.3493962,12.9391055 C13.4835946,13.0202982 13.6489337,13.0202982 13.7831321,12.9391055 C13.9173304,12.8579128 14,12.7078625 14,12.5454771 C13.9977727,10.8311022 12.6721115,9.44190887 11.0361414,9.43957587 C10.5915974,9.43841895 10.152607,9.54306618 9.75228461,9.74562366 C8.61246891,8.21774445 6.67293066,7.61633715 4.92326621,8.24825339 C3.17360176,8.88016963 1.99949443,10.6061144 2,12.5454715 C1.99984696,12.6660658 2.04549327,12.7817672 2.1268655,12.8670413 C2.20823774,12.9523154 2.31864658,13.0001522 2.43372561,13 Z" id="Path"></path>
                                <path d="M17,9.61290282 L17,6.38709718 C17,6.17330931 16.7761424,6 16.5,6 C16.2238576,6 16,6.17330931 16,6.38709718 L16,9.61290282 C16,9.82669069 16.2238576,10 16.5,10 C16.7761424,10 17,9.82669069 17,9.61290282 L17,9.61290282 Z" id="Path"></path>
                                <path d="M18.5,9 C18.6326147,9 18.7598039,8.9501205 18.8535767,8.86128304 C18.9473495,8.77244559 19.0000211,8.65195041 19,8.52631528 L19,6.47368472 C19,6.21207587 18.7761424,6 18.5,6 C18.2238576,6 18,6.21207587 18,6.47368472 L18,8.52631528 C17.9999789,8.65195041 18.0526505,8.77244559 18.1464233,8.86128304 C18.2401961,8.9501205 18.3673853,9 18.5,9 Z" id="Path"></path>
                                <path d="M18,12.5263153 C18,12.7879241 18.2238576,13 18.5,13 C18.7761424,13 19,12.7879241 19,12.5263153 L19,10.4736847 C19,10.2120759 18.7761424,10 18.5,10 C18.2238576,10 18,10.2120759 18,10.4736847 L18,12.5263153 Z" id="Path"></path>
                            </g>
                        </g>
                    </g>
                </g>
            </g>
        </g>
    </g>
</svg>