<?xml version="1.0" encoding="UTF-8"?>
<svg width="24px" height="14px" viewBox="0 0 24 14" version="1.1" xmlns="http://www.w3.org/2000/svg" xmlns:xlink="http://www.w3.org/1999/xlink">
    <!-- Generator: sketchtool 55.2 (78181) - https://sketchapp.com -->
    <title>FDA7520E-6DD1-48A7-BCBB-3B27BAE08FE5</title>
    <desc>Created with sketchtool.</desc>
    <g id="vacation-villas" stroke="none" stroke-width="1" fill="none" fill-rule="evenodd">
        <g id="vacation-villas-filter" transform="translate(-1201.000000, -500.000000)" fill="#192752" fill-rule="nonzero">
            <g id="villa-list" transform="translate(473.000000, 390.000000)">
                <g id="villa-list-la-garconniere" transform="translate(0.000000, 41.000000)">
                    <g id="commodities-number" transform="translate(663.000000, 64.000000)">
                        <g id="bedroom-number" transform="translate(65.000000, 2.000000)">
                            <g id="noun_Bed_3521265" transform="translate(0.000000, 3.000000)">
                                <path d="M23.4666667,7.5264 L22.9333333,7.5264 L22.9333333,6.4512 C22.9333333,5.265792 21.976,4.3008 20.8,4.3008 L8.53333333,4.3008 L8.53333333,3.2256 C8.53333333,2.335872 7.816,1.6128 6.93333333,1.6128 L4.26666667,1.6128 C4.08,1.6128 3.90133333,1.647744 3.73333333,1.70688 L3.73333333,0.5376 C3.73333333,0.24192 3.49333333,0 3.2,0 L0.533333333,0 C0.24,0 0,0.24192 0,0.5376 L0,8.064 L0,10.752 L0,12.9024 C0,13.19808 0.24,13.44 0.533333333,13.44 C0.826666667,13.44 1.06666667,13.19808 1.06666667,12.9024 L1.06666667,11.2896 L22.9333333,11.2896 L22.9333333,12.9024 C22.9333333,13.19808 23.1733333,13.44 23.4666667,13.44 C23.76,13.44 24,13.19808 24,12.9024 L24,10.752 L24,8.064 C24,7.76832 23.76,7.5264 23.4666667,7.5264 Z M21.8666667,6.4512 L21.8666667,7.5264 L3.73333333,7.5264 L3.73333333,5.376 L8,5.376 L20.8,5.376 C21.3893333,5.376 21.8666667,5.857152 21.8666667,6.4512 Z M4.26666667,2.688 L6.93333333,2.688 C7.22666667,2.688 7.46666667,2.92992 7.46666667,3.2256 L7.46666667,4.3008 L3.73333333,4.3008 L3.73333333,3.2256 C3.73333333,2.92992 3.97333333,2.688 4.26666667,2.688 Z M1.06666667,1.0752 L2.66666667,1.0752 L2.66666667,3.2256 L2.66666667,4.8384 L2.66666667,7.5264 L1.06666667,7.5264 L1.06666667,1.0752 Z M1.06666667,8.6016 L3.2,8.6016 L22.4,8.6016 L22.9333333,8.6016 L22.9333333,10.2144 L1.06666667,10.2144 L1.06666667,8.6016 Z" id="Shape"></path>
                            </g>
                        </g>
                    </g>
                </g>
            </g>
        </g>
    </g>
</svg>