<svg xmlns="http://www.w3.org/2000/svg" width="24" height="28" viewBox="0 0 24 28">
    <g fill="none" fill-rule="evenodd">
        <g fill="#A8A8A8" fill-rule="nonzero">
            <g>
                <g>
                    <path d="M23.333 26.667c0 .552-.447 1-1 1-.552 0-1-.448-1-1 0-5.34-4.328-9.667-9.666-9.667C6.327 17 2 21.328 2 26.667c0 .552-.448 1-1 1s-1-.448-1-1C0 20.223 5.223 15 11.667 15c6.443 0 11.666 5.223 11.666 11.667zM11.667 14.333c-3.866 0-7-3.134-7-7s3.134-7 7-7 7 3.134 7 7-3.134 7-7 7zm0-2c2.761 0 5-2.238 5-5 0-2.761-2.239-5-5-5-2.762 0-5 2.239-5 5 0 2.762 2.238 5 5 5z" transform="translate(-623 -509) translate(289 483) translate(334 26)"/>
                </g>
            </g>
        </g>
    </g>
</svg>
