<svg xmlns="http://www.w3.org/2000/svg" width="34" height="34" viewBox="0 0 34 34">
    <g fill="none" fill-rule="evenodd">
        <g>
            <g>
                <g>
                    <g transform="translate(-280 -1112) translate(132 1112) translate(148)">
                        <rect width="34" height="34" fill="#1877F2" rx="17"/>
                        <g fill="#FFF" fill-rule="nonzero">
                            <path d="M10 0C4.477 0 0 4.496 0 10.042c0 4.974 3.605 9.093 8.332 9.89v-7.795H5.92V9.33h2.412V7.263c0-2.4 1.46-3.708 3.593-3.708 1.021 0 1.899.076 2.154.11v2.508l-1.48.001c-1.159 0-1.383.553-1.383 1.365V9.33h2.767l-.36 2.805h-2.407V20C16.164 19.395 20 15.171 20 10.039 20 4.496 15.523 0 10 0z" transform="translate(7 7)"/>
                        </g>
                    </g>
                </g>
            </g>
        </g>
    </g>
</svg>
