<svg xmlns="http://www.w3.org/2000/svg" width="33" height="32" viewBox="0 0 33 32">
    <g fill="none" fill-rule="evenodd">
        <g fill="#192752" fill-rule="nonzero">
            <g>
                <path d="M440.917 136c-8.855 0-16.034 7.194-16.034 16.067 0 7.958 5.78 14.55 13.36 15.826v-12.474h-3.868v-4.489h3.868v-3.31c0-3.84 2.34-5.933 5.76-5.933 1.637 0 3.045.123 3.453.176v4.015h-2.371c-1.86 0-2.218.886-2.218 2.185v2.865h4.436l-.579 4.489h-3.857V168c7.933-.968 14.083-7.726 14.083-15.938 0-8.868-7.179-16.062-16.033-16.062z" transform="translate(-934 -176) translate(510.06 40)"/>
            </g>
        </g>
    </g>
</svg>
