<?xml version="1.0" encoding="UTF-8"?>
<svg width="24px" height="16px" viewBox="0 0 24 16" version="1.1" xmlns="http://www.w3.org/2000/svg" xmlns:xlink="http://www.w3.org/1999/xlink">
    <!-- Generator: sketchtool 55.2 (78181) - https://sketchapp.com -->
    <title>AAB6BCE2-F1B9-40D1-BD5F-7F9DC8D6DB13</title>
    <desc>Created with sketchtool.</desc>
    <g id="vacation-villas" stroke="none" stroke-width="1" fill="none" fill-rule="evenodd">
        <g id="vacation-villas-filter" transform="translate(-1136.000000, -499.000000)" fill="#192752" fill-rule="nonzero">
            <g id="villa-list" transform="translate(473.000000, 390.000000)">
                <g id="villa-list-la-garconniere" transform="translate(0.000000, 41.000000)">
                    <g id="commodities-number" transform="translate(663.000000, 64.000000)">
                        <g id="guests-number" transform="translate(0.000000, 2.000000)">
                            <g id="noun_guests_122299" transform="translate(0.000000, 2.000000)">
                                <path d="M12,10.1333333 C10.0885333,10.1333333 8.53333333,8.57813333 8.53333333,6.66666667 C8.53333333,4.7552 10.0885333,3.2 12,3.2 C13.9114667,3.2 15.4666667,4.7552 15.4666667,6.66666667 C15.4666667,8.57813333 13.9114667,10.1333333 12,10.1333333 Z M12,4.26666667 C10.6768,4.26666667 9.6,5.34346667 9.6,6.66666667 C9.6,7.98986667 10.6768,9.06666667 12,9.06666667 C13.3232,9.06666667 14.4,7.98986667 14.4,6.66666667 C14.4,5.34346667 13.3232,4.26666667 12,4.26666667 Z" id="Shape"></path>
                                <path d="M12,16 C9.7696,16 6.4,16 6.4,13.0666667 C6.4,10.4533333 10.5648,9.6 12,9.6 C13.7541333,9.6 17.6,10.4730667 17.6,13.0666667 C17.6,16 14.2304,16 12,16 Z M12,10.6666667 C10.7514667,10.6666667 7.46666667,11.4048 7.46666667,13.0666667 C7.46666667,14.6442667 8.99306667,14.9333333 12,14.9333333 C15.0069333,14.9333333 16.5333333,14.6442667 16.5333333,13.0666667 C16.5333333,11.3573333 13.3338667,10.6666667 12,10.6666667 Z" id="Shape"></path>
                                <path d="M5.59944232,6.93333333 C3.69976159,6.93333333 2.14460465,5.38826667 2.13340496,3.48853333 C2.12753846,2.56266667 2.4821953,1.6896 3.13337727,1.03093333 C3.78402592,0.372266667 4.65226854,0.00586666667 5.57864289,0 C7.49965636,0 9.0548133,1.54506667 9.06660681,3.4448 C9.07774599,5.35626667 7.53272211,6.92106667 5.62130838,6.93333333 L5.59944232,6.93333333 Z M5.59997563,1.06666667 C4.9439938,1.0704 4.34294378,1.32426667 3.89228959,1.78026667 C3.4416354,2.23626667 3.07204564,2.84053333 3.07631219,3.4816 C3.08377865,4.7968 4.28481205,5.86666667 5.35144918,5.86666667 L5.49117865,5.86666667 C6.81380869,5.85813333 7.94657732,4.77493333 7.93804422,3.45173333 C7.92951112,2.13653333 6.91513921,1.06666667 5.59997563,1.06666667 Z" id="Shape"></path>
                                <path d="M5.33798762,12.8 C3.89969831,12.8 2.75088613,12.7269467 1.86158672,12.4203359 C0.634118096,11.9969465 0.00807699218,11.1491012 0,9.9007956 C-0.00529995447,9.08014532 0.409385392,7.92728898 2.41218184,7.09757369 C3.63001907,6.59259915 4.98376607,6.40383359 5.59643023,6.40010093 C6.27651419,6.39583505 7.19898843,6.52701111 8,6.75150349 L7.71052287,7.77851612 C6.87419617,7.5444255 6.08228093,7.46763951 5.60285116,7.46710627 C5.09506227,7.47030569 3.89113707,7.64040799 2.82312165,8.08299391 C2.02050485,8.4157332 1.06485578,9.00015991 1.07074163,9.89493 C1.07555734,10.6846526 1.41693701,11.1389697 2.21206272,11.413053 C3.01842507,11.6914023 4.16135139,11.7420597 5.63067521,11.7329947 L5.63709614,12.7994668 C5.53543135,12.7994668 5.43537179,12.8 5.33798762,12.8 Z" id="Path"></path>
                                <path d="M18.4005389,6.93333333 L18.3786726,6.93333333 C17.4522903,6.92746667 16.5840402,6.5616 15.9333859,5.9024 C15.2821983,5.24373333 14.9275384,4.37066667 14.933405,3.4448 C14.9446048,1.54506667 16.5003084,0 18.4000056,0 C20.3327687,0.0117333333 21.8778059,1.57706667 21.8666062,3.48853333 C21.8548731,5.38826667 20.2997027,6.93333333 18.4005389,6.93333333 Z M18.4149386,1.06666667 C17.0842973,1.06666667 16.0075178,2.13653333 16.0000513,3.45173333 C15.9957847,4.0928 16.2416467,4.69706667 16.6923048,5.15306667 C17.1429629,5.60906667 17.8661491,5.86293333 18.5072035,5.86666667 L18.6448009,5.86666667 C19.7114472,5.86666667 20.9135577,4.7968 20.9220908,3.4816 C20.930624,2.1584 19.7381134,1.0752 18.4149386,1.06666667 Z" id="Shape"></path>
                                <path d="M18.8560563,12.8 C18.6875179,12.8 18.5232599,12.7989338 18.3643523,12.7978677 L18.3707728,11.7317084 C21.4028581,11.7477008 22.9207733,11.4715656 22.9304041,9.89418298 C22.9411049,8.23310688 19.6500592,7.47506766 18.397525,7.46707147 C18.3889643,7.46707147 18.3809386,7.46707147 18.372913,7.46707147 C17.8994005,7.46707147 17.1123531,7.54863265 16.2894579,7.77838997 L16,6.75167862 C16.8009585,6.52778518 17.7233715,6.39184987 18.4034104,6.40037915 C19.8432095,6.4094415 24.0160051,7.28795672 24,9.90004686 C23.9833675,12.6246168 21.0641762,12.8 18.8560563,12.8 Z" id="Path"></path>
                            </g>
                        </g>
                    </g>
                </g>
            </g>
        </g>
    </g>
</svg>