<svg xmlns="http://www.w3.org/2000/svg" width="31" height="28" viewBox="0 0 31 28">
    <g fill="none" fill-rule="evenodd">
        <g fill="#A8A8A8" fill-rule="nonzero">
            <g>
                <g>
                    <path d="M31 5v20c0 1.657-1.487 3-3.321 3H3.32C1.487 28 0 26.657 0 25v-5.85c0-.552.496-1 1.107-1 .612 0 1.107.448 1.107 1V25c0 .552.496 1 1.107 1H27.68c.611 0 1.107-.448 1.107-1V5c0-.552-.496-1-1.107-1H26.57v1c0 .552-.495 1-1.107 1-.611 0-1.107-.448-1.107-1V4h-7.75v1c0 .552-.496 1-1.107 1s-1.107-.448-1.107-1V4h-7.75v1c0 .552-.496 1-1.107 1-.612 0-1.107-.448-1.107-1V4H3.32c-.611 0-1.107.448-1.107 1v9c0 .552-.495 1-1.107 1C.496 15 0 14.552 0 14V5c0-1.657 1.487-3 3.321-3H4.43V1c0-.552.495-1 1.107-1 .611 0 1.107.448 1.107 1v1h7.75V1c0-.552.496-1 1.107-1s1.107.448 1.107 1v1h7.75V1c0-.552.496-1 1.107-1 .612 0 1.107.448 1.107 1v1h1.108C29.513 2 31 3.343 31 5zM8.857 13h2.214c.612 0 1.108-.448 1.108-1s-.496-1-1.108-1H8.857c-.611 0-1.107.448-1.107 1s.496 1 1.107 1zm5.536 0h2.214c.612 0 1.107-.448 1.107-1s-.495-1-1.107-1h-2.214c-.612 0-1.107.448-1.107 1s.495 1 1.107 1zm5.536 0h2.214c.611 0 1.107-.448 1.107-1s-.496-1-1.107-1h-2.214c-.612 0-1.108.448-1.108 1s.496 1 1.108 1zM8.857 17h2.214c.612 0 1.108-.448 1.108-1s-.496-1-1.108-1H8.857c-.611 0-1.107.448-1.107 1s.496 1 1.107 1zm5.536 0h2.214c.612 0 1.107-.448 1.107-1s-.495-1-1.107-1h-2.214c-.612 0-1.107.448-1.107 1s.495 1 1.107 1zm5.536 0h2.214c.611 0 1.107-.448 1.107-1s-.496-1-1.107-1h-2.214c-.612 0-1.108.448-1.108 1s.496 1 1.108 1zM8.857 21h2.214c.612 0 1.108-.448 1.108-1s-.496-1-1.108-1H8.857c-.611 0-1.107.448-1.107 1s.496 1 1.107 1zm5.536 0h2.214c.612 0 1.107-.448 1.107-1s-.495-1-1.107-1h-2.214c-.612 0-1.107.448-1.107 1s.495 1 1.107 1zm5.536 0h2.214c.611 0 1.107-.448 1.107-1s-.496-1-1.107-1h-2.214c-.612 0-1.108.448-1.108 1s.496 1 1.108 1z" transform="translate(-321 -509) translate(289 483) translate(32 26) matrix(-1 0 0 1 31 0)"/>
                </g>
            </g>
        </g>
    </g>
</svg>
