<svg xmlns="http://www.w3.org/2000/svg" width="32" height="32" viewBox="0 0 32 32">
    <g fill="none" fill-rule="evenodd">
        <g>
            <g>
                <g transform="translate(-101 -728) translate(57 728) translate(44)">
                    <circle cx="16" cy="16" r="16" fill="#000" fill-opacity=".55"/>
                    <g fill="#FFF" fill-rule="nonzero">
                        <g>
                            <path d="M14.297 4.525c-.41-.328-1.025-.287-1.374.144-.349.43-.267 1.046.164 1.394.554.452.903 1.15.903 1.908 0 .82-.39 1.539-1.005 1.99-.39.287-.452.861-.144 1.23l.082.083c.328.39.944.471 1.333.164 1.026-.8 1.682-2.072 1.682-3.467s-.635-2.626-1.64-3.446z" transform="translate(7 8)"/>
                            <path d="M16.533 1.776c-.41-.328-1.005-.246-1.354.144-.328.41-.287 1.025.124 1.354 1.353 1.128 2.235 2.81 2.235 4.697s-.882 3.59-2.235 4.698c-.41.328-.452.943-.124 1.353.329.41.944.493 1.354.165 1.805-1.457 2.975-3.693 2.975-6.195-.02-2.523-1.17-4.76-2.975-6.216zM8.574.279L3.59 4.115H1.149C.513 4.115 0 4.628 0 5.263v5.416c0 .636.513 1.149 1.149 1.149h2.44l5.006 3.835c.882.677 2.133.062 2.133-1.066V1.325c0-1.087-1.272-1.723-2.154-1.046z" transform="translate(7 8)"/>
                        </g>
                    </g>
                </g>
            </g>
        </g>
    </g>
</svg>
