<svg xmlns="http://www.w3.org/2000/svg" width="34" height="34" viewBox="0 0 34 34">
    <g fill="none" fill-rule="evenodd">
        <g>
            <g>
                <g>
                    <g transform="translate(-396 -1112) translate(132 1112) translate(148) translate(116)">
                        <rect width="34" height="34" fill="#E60023" rx="17"/>
                        <g fill="#FFF" fill-rule="nonzero">
                            <path d="M14.997 1.34C13.467.447 11.797 0 9.985 0 8.174 0 6.503.447 4.973 1.34c-1.53.892-2.741 2.104-3.634 3.633C.446 6.503 0 8.174 0 9.986c0 2.02.55 3.852 1.651 5.5 1.1 1.646 2.544 2.864 4.33 3.653-.035-.928.021-1.695.169-2.302l1.287-5.434c-.217-.425-.325-.954-.325-1.586 0-.737.186-1.353.559-1.847.372-.494.828-.74 1.365-.74.433 0 .767.142 1.001.428.234.286.351.646.351 1.08 0 .268-.05.596-.149.981-.1.386-.23.832-.39 1.34-.16.506-.275.911-.345 1.215-.121.528-.021.981.3 1.358.32.378.745.566 1.274.566.927 0 1.688-.516 2.282-1.547.593-1.032.89-2.284.89-3.758 0-1.135-.366-2.058-1.099-2.77-.732-.71-1.753-1.065-3.061-1.065-1.465 0-2.65.47-3.556 1.41-.906.94-1.359 2.066-1.359 3.374 0 .78.221 1.435.663 1.964.147.173.195.36.143.558-.017.052-.052.182-.104.39-.052.208-.087.343-.104.403-.07.278-.234.365-.494.26-.668-.277-1.175-.758-1.521-1.443-.347-.684-.52-1.477-.52-2.379 0-.58.093-1.161.28-1.742.185-.58.476-1.142.87-1.684.394-.541.867-1.02 1.418-1.437.55-.416 1.22-.75 2.008-1 .789-.252 1.639-.378 2.549-.378 1.23 0 2.336.273 3.315.82.98.545 1.727 1.252 2.243 2.119.516.866.774 1.794.774 2.782 0 1.3-.226 2.47-.676 3.51-.451 1.04-1.088 1.858-1.912 2.451-.823.594-1.76.891-2.808.891-.53 0-1.023-.123-1.483-.37-.46-.248-.775-.54-.949-.878-.39 1.534-.624 2.449-.702 2.743-.165.616-.503 1.326-1.014 2.132.927.278 1.872.416 2.834.416 1.812 0 3.483-.446 5.012-1.339 1.53-.893 2.741-2.104 3.634-3.634.893-1.53 1.34-3.2 1.34-5.012 0-1.812-.447-3.482-1.34-5.012-.892-1.53-2.104-2.74-3.634-3.633z" transform="translate(7 7)"/>
                        </g>
                    </g>
                </g>
            </g>
        </g>
    </g>
</svg>
