<?xml version="1.0" encoding="UTF-8"?>
<svg width="20px" height="20px" viewBox="0 0 20 20" version="1.1" xmlns="http://www.w3.org/2000/svg" xmlns:xlink="http://www.w3.org/1999/xlink">
    <!-- Generator: sketchtool 55.2 (78181) - https://sketchapp.com -->
    <title>5B19D5C5-5B87-4C46-971B-E013276C8C5A</title>
    <desc>Created with sketchtool.</desc>
    <g id="vacation-villas" stroke="none" stroke-width="1" fill="none" fill-rule="evenodd">
        <g id="vacation-villas-filter" transform="translate(-390.000000, -455.000000)" fill="#A8A8A8">
            <g id="filter-component" transform="translate(132.000000, 419.000000)">
                <g id="search" transform="translate(24.000000, 24.000000)">
                    <g id="noun_Search_2310137" transform="translate(234.000000, 12.000000)">
                        <path d="M12.2272727,13.1363636 L13.3181818,12.0818182 L19.7181818,18.4818182 C20.4454545,19.2090909 19.3545455,20.3 18.6272727,19.5727273 L12.2272727,13.1363636 Z M2.04545455,2.04545455 C4.73636364,-0.681818182 9.13636364,-0.681818182 11.8636364,2.04545455 C14.5545455,4.73636364 14.5545455,9.13636364 11.8636364,11.8636364 C9.13636364,14.5545455 4.73636364,14.5545455 2.04545455,11.8636364 C-0.681818182,9.13636364 -0.681818182,4.73636364 2.04545455,2.04545455 Z M3.13636364,3.13636364 C1.02727273,5.24545455 1.02727273,8.66363636 3.13636364,10.7727273 C5.24545455,12.8818182 8.66363636,12.8818182 10.7727273,10.7727273 C12.8818182,8.66363636 12.8818182,5.24545455 10.7727273,3.13636364 C8.66363636,1.02727273 5.24545455,1.02727273 3.13636364,3.13636364 Z" id="Shape"></path>
                    </g>
                </g>
            </g>
        </g>
    </g>
</svg>