<svg xmlns="http://www.w3.org/2000/svg" width="20" height="20" viewBox="0 0 20 20">
    <g fill="none" fill-rule="evenodd">
        <g fill="#75B9D7" fill-rule="nonzero">
            <g>
                <g>
                    <g>
                        <g>
                            <g>
                                <g>
                                    <path d="M19.243.045L.336 7.831c-.222.09-.356.312-.334.557.023.244.178.445.423.489l8.564 2.136 2.135 8.564c.067.223.267.4.49.423h.044c.222 0 .423-.133.511-.334L19.955.757c.089-.2.044-.445-.112-.6-.133-.156-.378-.2-.6-.112z" transform="translate(-898 -3563) translate(132 2979) translate(0 295) translate(600) translate(107 288) translate(59 1)"/>
                                </g>
                            </g>
                        </g>
                    </g>
                </g>
            </g>
        </g>
    </g>
</svg>
