<svg xmlns="http://www.w3.org/2000/svg" width="20" height="22" viewBox="0 0 20 22">
    <g fill="none" fill-rule="evenodd">
        <g fill="#192752" fill-rule="nonzero">
            <g>
                <g>
                    <path d="M16.183 7.506c1.642.007 3.097-1.056 3.591-2.622.494-1.566-.088-3.271-1.437-4.208-1.349-.937-3.15-.887-4.445.122-1.295 1.01-1.783 2.745-1.203 4.281L6.692 8.544C5.688 7.331 4.031 6.878 2.55 7.411c-1.482.534-2.47 1.94-2.47 3.515 0 1.575.988 2.98 2.47 3.515 1.482.533 3.139.08 4.143-1.133l5.997 3.465c-.691 1.835.15 3.892 1.93 4.718 1.778.825 3.893.139 4.848-1.574.955-1.713.428-3.872-1.209-4.952s-3.83-.715-5.028.837l-5.963-3.446c.38-.915.38-1.945 0-2.86L13.23 6.05c.705.917 1.796 1.455 2.953 1.456z" transform="translate(-132 -1118) translate(132 1112) translate(0 6)"/>
                </g>
            </g>
        </g>
    </g>
</svg>
