<svg xmlns="http://www.w3.org/2000/svg" width="34" height="34" viewBox="0 0 34 34">
    <g fill="none" fill-rule="evenodd">
        <g>
            <g>
                <g>
                    <g transform="translate(-338 -1112) translate(132 1112) translate(148) translate(58)">
                        <rect width="34" height="34" fill="#1DA1F2" rx="17"/>
                        <g fill="#FFF" fill-rule="nonzero">
                            <path d="M20 1.924c-.744.326-1.536.542-2.363.647.85-.507 1.5-1.305 1.804-2.266-.792.472-1.667.806-2.6.993C16.09.496 15.016 0 13.846 0 11.576 0 9.75 1.843 9.75 4.101c0 .325.027.638.095.935-3.409-.166-6.425-1.8-8.451-4.288C1.038 1.36.83 2.063.83 2.82c0 1.42.732 2.679 1.821 3.408-.658-.013-1.305-.204-1.852-.505v.045c0 1.992 1.421 3.647 3.285 4.028-.334.091-.697.135-1.075.135-.262 0-.527-.015-.776-.07.531 1.624 2.038 2.818 3.831 2.856-1.395 1.092-3.166 1.75-5.084 1.75-.336 0-.658-.016-.981-.057 1.816 1.171 3.969 1.84 6.29 1.84 7.545 0 11.67-6.25 11.67-11.668 0-.18-.006-.356-.015-.53.814-.577 1.497-1.298 2.055-2.128z" transform="translate(7 10)"/>
                        </g>
                    </g>
                </g>
            </g>
        </g>
    </g>
</svg>
