<svg xmlns="http://www.w3.org/2000/svg" xmlns:xlink="http://www.w3.org/1999/xlink" width="88" height="88" viewBox="0 0 88 88">
    <defs>
        <filter id="dxlgf0772a" width="162.5%" height="162.5%" x="-31.2%" y="-25%" filterUnits="objectBoundingBox">
            <feOffset dy="4" in="SourceAlpha" result="shadowOffsetOuter1"/>
            <feGaussianBlur in="shadowOffsetOuter1" result="shadowBlurOuter1" stdDeviation="6"/>
            <feColorMatrix in="shadowBlurOuter1" values="0 0 0 0 0.369451993 0 0 0 0 0.367692027 0 0 0 0 0.367692027 0 0 0 0.250519012 0"/>
        </filter>
        <circle id="oo82gefq0b" cx="32" cy="32" r="32"/>
    </defs>
    <g fill="none" fill-rule="evenodd">
        <g>
            <g>
                <g transform="translate(12 8)">
                    <use fill="#000" filter="url(#dxlgf0772a)" xlink:href="#oo82gefq0b"/>
                    <use fill="#25D366" xlink:href="#oo82gefq0b"/>
                </g>
            </g>
            <path fill="#FFF" fill-rule="nonzero" d="M16 48l2.26-8.217c-1.395-2.406-2.127-5.132-2.126-7.928C16.138 23.113 23.285 16 32.067 16c4.262.001 8.262 1.653 11.27 4.65 3.008 2.998 4.664 6.982 4.663 11.22-.004 8.742-7.151 15.855-15.933 15.855-2.666-.001-5.293-.666-7.62-1.93L16 48zm8.838-5.076c2.245 1.327 4.389 2.121 7.224 2.123 7.298 0 13.244-5.912 13.248-13.18.003-7.283-5.915-13.187-13.238-13.19-7.304 0-13.245 5.912-13.248 13.179-.001 2.967.872 5.188 2.34 7.512l-1.34 4.864 5.014-1.308zm15.255-7.285c-.099-.166-.364-.264-.764-.463-.397-.199-2.355-1.157-2.72-1.29-.365-.131-.63-.198-.897.2-.265.395-1.029 1.289-1.26 1.553-.232.264-.465.297-.863.098-.398-.198-1.681-.616-3.202-1.966-1.183-1.051-1.983-2.348-2.215-2.746-.231-.396-.024-.61.175-.808.18-.177.398-.462.597-.694.202-.23.268-.395.402-.66.133-.264.067-.496-.033-.695-.1-.197-.897-2.148-1.228-2.941-.324-.772-.652-.668-.896-.68l-.763-.014c-.266 0-.697.099-1.062.496-.364.398-1.393 1.355-1.393 3.306 0 1.95 1.427 3.834 1.625 4.098.2.264 2.807 4.267 6.8 5.983.95.408 1.693.652 2.27.835.954.301 1.822.258 2.508.157.765-.113 2.355-.959 2.687-1.884.333-.927.333-1.72.232-1.885z" transform="translate(12 8)"/>
        </g>
    </g>
</svg>
