<svg xmlns="http://www.w3.org/2000/svg" width="32" height="22" viewBox="0 0 32 22">
    <g fill="none" fill-rule="evenodd">
        <g fill="#192752" fill-rule="nonzero">
            <g>
                <g>
                    <path d="M31.15 3.442c.68 2.46.655 7.584.655 7.584s0 5.099-.655 7.558c-.367 1.345-1.441 2.407-2.803 2.769C25.857 22 15.902 22 15.902 22s-9.929 0-12.444-.673c-1.362-.362-2.436-1.423-2.803-2.77C0 16.126 0 11 0 11s0-5.099.655-7.558C1.022 2.096 2.122 1.01 3.458.647 5.947 0 15.902 0 15.902 0s9.956 0 12.445.673c1.362.362 2.436 1.423 2.803 2.77zM21.01 11l-8.279-4.71v9.42L21.011 11z" transform="translate(-1031 -181) translate(510.06 40) translate(521.083 141)"/>
                </g>
            </g>
        </g>
    </g>
</svg>
