<svg xmlns="http://www.w3.org/2000/svg" width="31" height="28"><path d="M0 5v20c0 1.657 1.487 3 3.321 3H27.68c1.833 0 3.32-1.343 3.32-3v-5.85c0-.552-.496-1-1.107-1-.612 0-1.107.448-1.107 1V25c0 .552-.496 1-1.107 1H3.32c-.611 0-1.107-.448-1.107-1V5c0-.552.496-1 1.107-1h1.11v1c0 .552.495 1 1.107 1 .611 0 1.107-.448 1.107-1V4h7.75v1c0 .552.496 1 1.107 1s1.107-.448 1.107-1V4h7.75v1c0 .552.496 1 1.107 1 .612 0 1.107-.448 1.107-1V4h1.108c.611 0 1.107.448 1.107 1v9c0 .552.495 1 1.107 1 .61 0 1.106-.448 1.106-1V5c0-1.657-1.487-3-3.321-3H26.57V1c0-.552-.495-1-1.107-1-.611 0-1.107.448-1.107 1v1h-7.75V1c0-.552-.496-1-1.107-1s-1.107.448-1.107 1v1h-7.75V1c0-.552-.496-1-1.107-1-.612 0-1.107.448-1.107 1v1H3.32C1.487 2 0 3.343 0 5zm22.143 8h-2.214c-.612 0-1.108-.448-1.108-1s.496-1 1.108-1h2.214c.611 0 1.107.448 1.107 1s-.496 1-1.107 1zm-5.536 0h-2.214c-.612 0-1.107-.448-1.107-1s.495-1 1.107-1h2.214c.612 0 1.107.448 1.107 1s-.495 1-1.107 1zm-5.536 0H8.857c-.611 0-1.107-.448-1.107-1s.496-1 1.107-1h2.214c.612 0 1.108.448 1.108 1s-.496 1-1.108 1zm11.072 4h-2.214c-.612 0-1.108-.448-1.108-1s.496-1 1.108-1h2.214c.611 0 1.107.448 1.107 1s-.496 1-1.107 1zm-5.536 0h-2.214c-.612 0-1.107-.448-1.107-1s.495-1 1.107-1h2.214c.612 0 1.107.448 1.107 1s-.495 1-1.107 1zm-5.536 0H8.857c-.611 0-1.107-.448-1.107-1s.496-1 1.107-1h2.214c.612 0 1.108.448 1.108 1s-.496 1-1.108 1zm11.072 4h-2.214c-.612 0-1.108-.448-1.108-1s.496-1 1.108-1h2.214c.611 0 1.107.448 1.107 1s-.496 1-1.107 1zm-5.536 0h-2.214c-.612 0-1.107-.448-1.107-1s.495-1 1.107-1h2.214c.612 0 1.107.448 1.107 1s-.495 1-1.107 1zm-5.536 0H8.857c-.611 0-1.107-.448-1.107-1s.496-1 1.107-1h2.214c.612 0 1.108.448 1.108 1s-.496 1-1.108 1z" fill="#A8A8A8"/></svg>