<svg xmlns="http://www.w3.org/2000/svg" width="34" height="34"><g fill="none" fill-rule="evenodd"><rect width="34" height="34" fill="#1DA1F2" rx="17"/><path d="M27 11.924a8.555 8.555 0 01-2.363.647 4.072 4.072 0 001.804-2.266 8.216 8.216 0 01-2.6.993 4.098 4.098 0 00-7.091 2.803c0 .325.027.638.095.935-3.409-.166-6.425-1.8-8.451-4.288a4.099 4.099 0 00-.564 2.072 4.11 4.11 0 001.821 3.408 4.057 4.057 0 01-1.852-.505v.045a4.118 4.118 0 003.285 4.028 4.101 4.101 0 01-1.075.135c-.262 0-.527-.015-.776-.07.531 1.624 2.038 2.818 3.831 2.856a8.235 8.235 0 01-5.084 1.75c-.336 0-.658-.016-.981-.057a11.545 11.545 0 006.29 1.84c7.545 0 11.67-6.25 11.67-11.668 0-.18-.006-.356-.015-.53a8.173 8.173 0 002.055-2.128z" fill="#FFF" fill-rule="nonzero"/></g></svg>