<svg xmlns="http://www.w3.org/2000/svg" width="85" height="83" viewBox="0 0 85 83">
    <g fill="none" fill-rule="evenodd">
        <g fill="#BDD17C" fill-rule="nonzero">
            <g>
                <g>
                    <g transform="translate(-132 -1631) translate(132 1404) translate(0 218) translate(0 9)">
                        <path d="M37.617 10c2.13 0 3.858-1.567 3.858-3.5S39.748 3 37.617 3c-2.13 0-3.858 1.567-3.858 3.5.005 1.93 1.73 3.495 3.858 3.5zm0-5.177c1.021 0 1.849.75 1.849 1.677 0 .926-.828 1.677-1.849 1.677s-1.849-.75-1.849-1.677c0-.445.195-.871.542-1.186.346-.314.817-.491 1.307-.491zM49.191 17c2.131 0 3.859-1.567 3.859-3.5S51.322 10 49.19 10c-2.13 0-3.858 1.567-3.858 3.5.006 1.93 1.73 3.495 3.858 3.5zm0-5.177c1.021 0 1.85.75 1.85 1.677 0 .926-.829 1.677-1.85 1.677-1.02 0-1.848-.75-1.848-1.677 0-.926.827-1.677 1.848-1.677zM3.858 18c2.131 0 3.858-1.567 3.858-3.5S5.99 11 3.858 11C1.728 11 0 12.567 0 14.5c.006 1.93 1.73 3.495 3.858 3.5zm0-5.177c1.021 0 1.849.75 1.849 1.677 0 .926-.828 1.677-1.849 1.677-1.02 0-1.849-.75-1.849-1.677 0-.926.828-1.677 1.85-1.677zM33.759 46.5c0 1.933 1.727 3.5 3.858 3.5 2.13 0 3.858-1.567 3.858-3.5S39.748 43 37.617 43c-2.128.005-3.853 1.57-3.858 3.5zm5.707 0c0 .926-.828 1.677-1.849 1.677s-1.849-.75-1.849-1.677c0-.926.828-1.677 1.849-1.677.492-.003.965.173 1.314.488.349.315.545.743.545 1.189h-.01zM55.465 26.264c.61.47 1.348.725 2.106.725.182.015.365.015.548 0 .937-.147 1.78-.68 2.338-1.479.1-.145.19-.297.269-.454.353.05.71.075 1.067.077 3.46 0 7.171-2.137 9.695-5.724 2.313-3.166 3.19-7.225 2.403-11.119.17-.153.326-.325.463-.512 1.487-2.163 1.046-5.166-.992-6.768-.954-.783-2.17-1.133-3.375-.971C68.783.2 67.692.86 66.96 1.87c-3.627.164-7.505 2.494-9.992 6.023-2.783 4.003-3.572 9.262-1.93 12.86-.731.757-1.102 1.814-1.01 2.885.091 1.07.635 2.043 1.484 2.654l-.047-.029zm2.923-17.258c2.245-3.181 5.742-5.24 8.906-5.24.288 0 .585-.068 1.123-.822.445-.589 1.098-.967 1.813-1.05.714-.084 1.431.134 1.99.605 1.226.971 1.493 2.78.604 4.09-.07.08-.144.154-.223.222-.277.225-.497.517-.64.851-.025.069-.044.14-.056.213-.03.14-.03.285 0 .425.83 3.44.124 7.085-1.92 9.92-2.515 3.568-6.495 5.52-9.63 4.766-.466-.103-.93.177-1.077.648-.022.044-.04.09-.055.136-.187.665-.725 1.159-1.383 1.266-.685.108-1.364-.224-1.723-.841-.36-.617-.327-1.399.081-1.982.124-.176.278-.327.455-.445.033-.03.064-.062.092-.096.063-.05.12-.11.167-.174.022-.04.04-.083.056-.126.073-.107.106-.237.093-.368.007-.07.007-.142 0-.212-.016-.064-.037-.125-.065-.184-.014-.056-.032-.111-.056-.164-1.707-2.9-1.067-7.812 1.448-11.438z"/>
                        <path d="M58.586 18h.146c.454.006.843-.34.916-.815.692-3.983 3.048-7.42 6.409-9.35.45-.246.626-.832.394-1.31-.233-.476-.786-.663-1.236-.416-3.855 2.223-6.55 6.18-7.325 10.756-.097.516.212 1.019.696 1.135zM16.293 61.423c-.27-.404-.867-.543-1.334-.31-.468.231-.63.746-.36 1.15.304.465.629.918.973 1.36.299.388.905.494 1.354.236.449-.257.57-.78.272-1.168-.311-.414-.613-.837-.905-1.268zM27.418 71.996c-.636-.34-1.272-.711-1.889-1.092-.616-.382-1.458-.97-2.143-1.485-1.18-.899-2.289-1.895-3.318-2.98l-.372-.381c-.216-.217-.418-.447-.606-.691-.349-.436-.967-.491-1.38-.124-.414.367-.466 1.018-.118 1.454.23.298.48.58.744.845l.343.361c1.104 1.164 2.296 2.233 3.562 3.196.734.557 1.497 1.093 2.29 1.588.793.495 1.321.805 1.957 1.165.315.2.708.197 1.02-.007.312-.203.49-.573.46-.958-.029-.386-.26-.721-.599-.87l.05-.02zM63.832 35.406c-1.653 1.87-3.549 3.497-5.633 4.839-.36.33-.431.878-.17 1.294.261.415.778.575 1.22.376 2.237-1.44 4.27-3.186 6.045-5.19.26-.263.358-.65.253-1.008-.105-.358-.394-.627-.752-.698-.358-.072-.725.066-.953.357l-.01.03zM55.55 42.106c-2.994 1.632-5.256 4.38-6.316 7.672-.099.32-.022.67.2.918.222.247.557.355.878.281.32-.073.58-.315.678-.635.923-2.825 2.875-5.179 5.451-6.574.287-.168.465-.48.467-.817.001-.339-.174-.652-.46-.822-.286-.17-.639-.172-.926-.004l.027-.02z"/>
                        <path d="M84.357 26.008c-.151-.078-3.785-1.91-7.098-.646-.36.136-.708.303-1.04.5.35-.843.68-1.695.946-2.567.167-.513-.1-1.07-.597-1.243-.496-.173-1.034.103-1.201.617-.797 2.413-1.877 4.716-3.218 6.855-3.204-1.941-7.29-1.241-9.72 1.665l-1.949 2.234c-1.95 2.228-4.243 4.107-6.785 5.563l-1.997 1.145c-3.137 1.722-5.51 4.63-6.625 8.12-.32 1.108-.508 2.253-.558 3.408H28.654c3.125-4.18 3.745-9.812 1.609-14.613-2.764-6.248-7.136-9.49-11.698-8.687-1.456.365-2.796 1.114-3.89 2.174l-.68.549c-1.136-2.495-1.966-5.127-2.47-7.835-.097-.541-.6-.899-1.122-.799-.523.1-.868.62-.771 1.16.189.98.435 2.038.71 3.037-.363-.302-.753-.568-1.165-.793-3.321-1.812-7.362-.441-7.57-.382-.478.168-.744.693-.606 1.195.047.176 1.23 4.407 4.552 6.219.496.263 1.02.467 1.561.607l-.227.157c-4.57 3.477-3.785 10.176-1.58 15.21.5 1.108 1.136 2.145 1.892 3.085-.19.178-.303.43-.312.695C6.887 70.513 20.505 83 40.01 83c19.505 0 33.123-12.487 33.123-30.362 0-.54-.424-.979-.946-.979h-.672v-.127c.367-2.983 1.208-5.881 2.489-8.58l1.268-2.674c1.227-2.377 1.188-5.24-.104-7.58.672.15 1.357.23 2.044.235.867.008 1.729-.141 2.546-.44 3.34-1.255 4.978-5.055 5.044-5.221.198-.477.003-1.03-.445-1.264zM71.24 53.618c-.038 1.312-.158 2.62-.36 3.917H9.159c-.207-1.296-.333-2.604-.378-3.917h62.46zM3.225 27.066c1.707-.414 3.499-.238 5.1.5 1.5.949 2.656 2.38 3.294 4.074-1.718.406-3.518.213-5.12-.548-1.484-.94-2.633-2.353-3.274-4.026zm4.836 8.149c.908-.55 1.923-.885 2.971-.98.896-.105 1.774-.332 2.612-.675.793-.403 1.537-.903 2.215-1.49.85-.843 1.891-1.452 3.028-1.772 5.432-.98 8.764 5.553 9.653 7.571 2.068 4.673 1.088 10.185-2.451 13.79H9.357c-.041-.112-.102-.215-.18-.304-.886-.974-1.611-2.092-2.148-3.31-1.93-4.368-2.678-10.03 1.032-12.83zM40.01 81.04c-16.042 0-27.56-8.413-30.493-21.547h60.984c-2.934 13.134-14.45 21.547-30.492 21.547zm33.576-41.625L72.32 42.08c-1.372 2.893-2.274 6-2.669 9.197v.372H46.417c.068-.945.243-1.878.52-2.781.956-3 2.989-5.503 5.679-6.993l1.997-1.146c2.723-1.56 5.179-3.576 7.268-5.965l1.95-2.233c.845-.998 1.98-1.685 3.236-1.959 2.237-.478 4.54.414 5.924 2.295 1.383 1.88 1.6 4.417.559 6.52l.037.03zm5.527-8.814c-1.555.473-3.216.408-4.732-.186.79-1.443 2.013-2.58 3.483-3.242 1.555-.475 3.217-.41 4.732.186-.785 1.46-2.007 2.614-3.483 3.29v-.048z"/>
                        <path d="M8.617 41.99c.532-.083.92-.636.892-1.27-.026-.836.016-1.673.125-2.498.076-.569-.245-1.105-.722-1.207-.24-.048-.486.021-.681.193-.196.172-.324.431-.354.717-.132.944-.183 1.902-.152 2.858.003.611.382 1.128.892 1.217v-.01zM11.898 51.64c.211.278.538.409.858.343.32-.065.585-.317.695-.66.109-.343.047-.726-.164-1.003-.691-.905-1.266-1.914-1.706-2.997-.477-1.16-.853-2.368-1.126-3.607-.141-.513-.614-.814-1.08-.687-.466.126-.764.636-.68 1.164.293 1.375.704 2.716 1.225 4.003.513 1.246 1.18 2.405 1.978 3.444zM39.242 39.633c.854.241 1.736.365 2.621.367 1.777.008 3.517-.522 5.01-1.525 2.23-1.54 3.726-3.997 4.112-6.756.433-2.888-.181-5.84-1.722-8.281-1.498-2.473-3.826-4.276-6.53-5.058-2.576-.777-5.35-.351-7.603 1.167-2.252 1.518-3.763 3.98-4.14 6.748-.846 5.973 2.682 11.676 8.252 13.338zm.926-19.699c.723.002 1.442.102 2.14.3 2.26.656 4.205 2.166 5.454 4.236 1.294 2.045 1.81 4.52 1.445 6.94-.198 1.303-.693 2.538-1.445 3.6.322-3.104-.304-6.235-1.787-8.947-1.793-2.97-4.662-5.059-7.955-5.791.697-.218 1.42-.328 2.148-.328v-.01zm-7.353 6.65c.263-1.765 1.085-3.389 2.334-4.613h.101c3.719-.145 7.222 1.815 9.16 5.125 1.704 2.76 1.852 7.074 1.139 9.94-1.775 1.053-3.88 1.317-5.844.734-4.655-1.411-7.597-6.187-6.89-11.186z"/>
                        <circle cx="18.743" cy="17.22" r="1" transform="rotate(-30.66 18.743 17.22)"/>
                        <circle cx="23.099" cy="19.082" r="1" transform="rotate(-30.66 23.099 19.082)"/>
                        <circle cx="24.117" cy="9.375" r="1" transform="rotate(-30.66 24.117 9.375)"/>
                        <circle cx="25.376" cy="15.412" r="1" transform="rotate(-30.66 25.376 15.412)"/>
                        <circle cx="21.02" cy="13.55" r="1" transform="rotate(-30.66 21.02 13.55)"/>
                        <circle cx="19.908" cy="9.687" r="1" transform="rotate(-30.66 19.908 9.687)"/>
                        <circle cx="15.522" cy="13.518" r="1" transform="rotate(-30.66 15.522 13.518)"/>
                        <path d="M11.301 7.402l2.86.775c-3.307 2.981-4.136 6.629-2.161 10.186 1.686 3.032 7.547 6.033 10.668 6.57 2.332.403 4.6-1.033 5.385-3.41 1.053-3.19 1.398-10.106-.289-13.137-1.91-3.439-5.18-4.482-9.01-2.982l.755-3.16c.084-.344-.012-.71-.25-.96-.238-.248-.582-.343-.904-.248-.32.096-.57.367-.653.711l-.885 3.687-1.211-2.196c-.147-.346-.465-.573-.82-.584-.356-.012-.687.193-.853.528-.166.336-.14.743.07 1.05l1.23 2.206-3.457-.944c-.323-.09-.665.013-.899.267-.233.253-.322.62-.233.964.09.342.343.608.666.697l-.009-.02zm14.907 1.987c1.268 2.286 1.146 8.388.13 11.459-.485 1.472-1.891 2.36-3.335 2.107-3.01-.517-8.096-3.34-9.363-5.625-.92-1.444-1.06-3.296-.373-4.88.889-1.74 2.24-3.161 3.885-4.084 1.453-.996 3.121-1.578 4.845-1.69 1.761-.001 3.372 1.056 4.165 2.733l.046-.02z"/>
                    </g>
                </g>
            </g>
        </g>
    </g>
</svg>
