<svg xmlns="http://www.w3.org/2000/svg" width="85" height="83" viewBox="0 0 85 83">
    <g fill="none" fill-rule="evenodd">
        <g fill="#BDD17C" fill-rule="nonzero">
            <g>
                <g>
                    <g>
                        <path d="M12.782 26c-2.832 0-5.137 2.406-5.137 5.364 0 2.958 2.305 5.364 5.137 5.364 2.833 0 5.137-2.407 5.137-5.364S15.615 26 12.782 26zm0 8.75c-1.788 0-3.243-1.52-3.243-3.386 0-1.867 1.455-3.387 3.243-3.387 1.788 0 3.243 1.52 3.243 3.387s-1.456 3.386-3.243 3.386zm49.861 24.985c-.1-.789-.642-1.428-1.38-1.627l-9.192-2.493c-1.448-.391-2.914-.532-4.358-.42-2.078.164-4.155.374-6.19.614l-4.938-5.6c2.307-.597 4.649-1.29 6.187-1.974 2.362-1.05 3.805-3.18 3.859-5.698.061-2.842-1.629-5.475-4.41-6.87-4.228-2.119-14.549-3.631-18.867-3.168-4.602.49-7.893 3.848-9.266 9.455-.355 1.447-1.013 5.304-1.711 9.387-.596 3.482-1.21 7.083-1.647 9.236-.158.78.007 1.599.453 2.246.02.027.046.049.065.076-4.85 1.818-8.296 3.536-10.36 4.676-.644.356-.984 1.074-.864 1.828.119.753.661 1.318 1.382 1.438 4.853.812 9.71 1.159 14.45 1.159 21.358 0 40.335-7.04 45.863-10.32.66-.394 1.023-1.157.924-1.945zm-22.324-2.373c.24.272.362.627.342.997-.02.37-.179.708-.45.95-.51.463-1.284.434-1.763-.062l-7.468-7.724c.934-.198 2.155-.468 3.493-.788l5.846 6.627zM30.29 53.594l3.267 3.378c-.956.166-1.903.34-2.843.524l-.424-3.902zm-17.708 7.393c.443-2.184 1.06-5.8 1.659-9.298.66-3.869 1.344-7.868 1.681-9.245.822-3.357 2.812-7.464 7.624-7.977 3.966-.42 14.05 1.076 17.855 2.983 2.103 1.054 3.38 2.986 3.336 5.042-.037 1.747-1.025 3.177-2.707 3.925-1.716.763-4.594 1.561-7.222 2.206-.152-.007-.3.037-.44.107-2.935.707-5.449 1.205-5.497 1.215l-.852.17.963 8.73v.005l.479 4.53c.073.67-.374 1.294-1.008 1.42-.667.132-1.321-.324-1.455-1.02l-2.46-12.85c-.323-1.677.664-3.342 2.246-3.788l6.481-1.831c.508-.141.858-.623.853-1.17-.004-.546-.362-1.019-.868-1.15-3.124-.816-6.839-1.607-9.5-1.607-1.26 0-2.284.178-2.897.614-1.51 1.076-3.255 6.728-5.948 16.78-.276 1.03-.517 1.932-.711 2.629-.113.405-.494.67-.893.619-.237-.029-.444-.156-.582-.356-.137-.2-.186-.442-.137-.683zm4.148-1.678c1.076-4.018 3.934-14.692 5.19-15.678.648-.46 3.368-.42 7.977.583l-3.608 1.018c-2.541.718-4.126 3.39-3.61 6.085l1.46 7.627c-2.882.713-5.523 1.467-7.912 2.231.15-.551.317-1.176.503-1.866zm-12.2 9.997l17.41-3.338c.513-.098.853-.614.76-1.15-.094-.537-.58-.897-1.102-.794l-14.873 2.85c4.123-1.845 10.036-4.07 17.786-5.99l.628 3.283c.296 1.55 1.614 2.632 3.078 2.632.192 0 .387-.02.583-.059 1.6-.317 2.712-1.892 2.529-3.584l-.402-3.693c1.412-.277 2.846-.536 4.292-.773l1.896 1.962c.061.064.133.11.2.168l-4.333.882c-.513.104-.848.624-.747 1.16.088.473.484.8.927.8.06 0 .121-.006.182-.019l16.918-3.45c.513-.103.849-.623.748-1.159-.1-.536-.6-.888-1.11-.78l-7.715 1.572c.208-.414.337-.872.364-1.354.014-.266-.01-.527-.053-.782 1.769-.201 3.561-.381 5.358-.523 1.234-.097 2.493.023 3.74.361l9.186 2.433c-6.36 3.777-30.99 12.643-56.25 9.345z" transform="translate(-132 -1773) translate(132 1404) translate(0 362) translate(0 7)"/>
                        <path d="M84.827 40.706c-1.57 17.766-18.793 34.313-41.883 40.108C37.445 82.194 31.892 83 26.437 83h-.002c-.52 0-.942-.53-.942-1.07-.001-.54.42-1.025.94-1.026 5.307-.009 10.712-.718 16.068-2.063 22.32-5.602 38.952-21.36 40.448-38.305.049-.537.501-.94 1.026-.89.518.05.9.523.852 1.06zM19.75 9.653c-.492.172-.757.728-.59 1.24.166.512.702.79 1.195.613 1.97-.69 4.005-1.301 6.047-1.813 12.86-3.228 25.785-2.626 36.394 1.692 10.493 4.272 17.448 11.673 19.582 20.84.27 1.161.463 2.357.57 3.556.047.507.457.887.938.887.03 0 .06 0 .089-.004.518-.05.9-.527.851-1.065-.117-1.292-.324-2.582-.616-3.833-2.282-9.805-9.644-17.69-20.725-22.202C52.52 5.099 39.193 4.469 25.958 7.79c-2.095.526-4.184 1.152-6.208 1.862zm34.887 57.994c-2.914 1.537-10.886 4.448-17.206 6.08-.505.13-.855.589-.766 1.121.08.475.479.803.927.803.054 0 .11-.006.164-.018 4.271-.889 14.31-4.298 17.77-6.22.459-.256.632-.868.386-1.345-.246-.476-.813-.665-1.275-.42zm16.545-13.823c.153.1.325.146.493.146.316 0 .624-.164.804-.465 3.847-6.463 5.09-13.274 3.594-19.697-2.238-9.612-10.263-16.969-22.014-20.185-.497-.135-1.019.173-1.152.696-.133.523.168 1.058.671 1.196 11.06 3.028 18.592 9.863 20.664 18.754 1.374 5.903.21 12.2-3.367 18.209-.274.459-.136 1.062.307 1.346zM1.12 17.654c.466.285.996.31 1.532.174.05.56.316 1.33 1.28 1.905 1.37.82 3.258.148 5.052-.978-.062.714.088 1.42.561 2.067.533.732 1.209 1.04 1.99 1.04 1.943 0 4.54-1.893 7.245-3.863 1.214-.883 2.451-1.784 3.581-2.475-.075.617.04 1.123.174 1.472.528 1.386 2.06 2.281 3.9 2.281 1.009 0 2.166-.59 3.767-1.409 3.534-1.804 8.873-4.531 17.21-3.465.507.067.987-.315 1.05-.85.064-.537-.303-1.025-.82-1.092-8.892-1.14-14.765 1.86-18.272 3.65-1.27.649-2.366 1.208-2.935 1.208-1.03 0-1.912-.43-2.146-1.044-.214-.56.132-1.336.946-2.129.311-.302.388-.784.188-1.174-.201-.39-.624-.591-1.044-.493-1.939.465-4.349 2.22-6.68 3.918-2.485 1.81-5.89 4.286-6.65 3.244-.607-.832.384-2.412 1.503-3.696.759-.705 1.337-1.308 1.625-1.614.347-.37.355-.96.02-1.342-.335-.382-.9-.426-1.29-.1-.199.167-.922.791-1.693 1.664-2.376 2.168-5.257 4.127-6.341 3.484-.33-.197-.339-.345-.342-.394-.024-.354.316-.9.75-1.408.408-.362.757-.718 1.009-.989.344-.369.354-.953.023-1.335-.33-.383-.89-.436-1.279-.122-.166.133-.59.485-1.036.983-.826.71-1.633 1.22-1.922 1.17-.185-.113-.187-.209-.19-.28-.027-1.041 2.24-3.444 3.721-4.461 4.904-3.37 18.764-9.416 36.17-9.416h.018c.513 0 .933-.334.943-.868.01-.54-.406-.894-.925-.904C23.966-.326 9.644 6.175 4.567 9.662 4.519 9.694-.07 13.02 0 15.762c.021.792.417 1.464 1.12 1.892zm61.6 38.523c.194 0 .39-.061.56-.19 5.87-4.503 7.454-11.882 7.519-12.194.11-.529-.215-1.05-.724-1.163-.506-.114-1.01.222-1.12.752-.015.068-1.493 6.963-6.797 11.03-.417.321-.507.934-.198 1.368.186.26.47.397.76.397zm-5.337-.75c.123 0 .246-.024.366-.075 5.308-2.317 7.797-8.35 7.9-8.606.202-.498-.023-1.072-.504-1.281-.478-.212-1.033.023-1.234.523-.021.055-2.287 5.548-6.893 7.56-.48.209-.705.783-.503 1.281.151.375.5.599.868.599zm2.304-6.191c.277-.456.145-1.055-.292-1.344-.438-.291-1.02-.157-1.3.297-.018.026-1.748 2.752-6.114 4.361-.49.181-.746.74-.572 1.25.138.4.5.65.888.65.105 0 .212-.018.316-.056 5.022-1.853 6.993-5.023 7.074-5.158z" transform="translate(-132 -1773) translate(132 1404) translate(0 362) translate(0 7)"/>
                    </g>
                </g>
            </g>
        </g>
    </g>
</svg>
