<svg xmlns="http://www.w3.org/2000/svg" width="85" height="88" viewBox="0 0 85 88">
    <g fill="none" fill-rule="evenodd">
        <g fill="#BDD17C" fill-rule="nonzero">
            <g>
                <g>
                    <g>
                        <path d="M52.136 67.833c1.464 0 2.65-1.231 2.65-2.75 0-1.52-1.186-2.75-2.65-2.75s-2.651 1.23-2.651 2.75c0 1.519 1.187 2.75 2.65 2.75zm0-3.667c.488 0 .883.41.883.917 0 .506-.395.916-.883.916s-.884-.41-.884-.916c0-.507.396-.917.884-.917zm-22.975 5.5c1.464 0 2.65-1.231 2.65-2.75s-1.186-2.75-2.65-2.75-2.651 1.231-2.651 2.75 1.187 2.75 2.65 2.75zm0-3.667c.488 0 .883.41.883.917 0 .506-.395.917-.883.917s-.884-.41-.884-.917c0-.506.396-.917.884-.917zM10.604 46.62c.12.21.151.463.088.698-.064.235-.217.433-.424.55-.42.214-.93.051-1.16-.373-.23-.424-.102-.961.294-1.223.203-.124.446-.157.672-.09.227.065.418.223.53.438zm73.75-.66l-15.005-8.928-6.963-4.034c-.936-.555-1.997-.846-3.075-.843-1.147.004-2.272.334-3.252.953l-10.515 6.674-9.915-5.335c-1.842-.985-4.037-.951-5.85.091l-16.842 9.717c-.294.15-.483.457-.493.796-.01.34.163.656.448.824.284.167.635.158.91-.025l11.683-6.728 1.449 1.32c.755.682 1.72 1.06 2.722 1.063.612-.013 1.215-.163 1.767-.44h.124c.668-.34 1.452-.34 2.12 0 .551.28 1.155.43 1.768.44 1.093.003 2.142-.446 2.916-1.246l1.343-1.394 3.94 2.109-15.622 10.028c-.203.134-.349.344-.407.587-.052.232-.014.476.106.678.259.43.8.567 1.22.312L50.139 38.92l.353.385c1.27 1.317 2.994 2.055 4.79 2.054.726 0 1.447-.117 2.138-.349.506-.181 1.038-.274 1.573-.275.534.003 1.064.09 1.573.257l.53.183c.687.25 1.41.374 2.138.367 1.46.001 2.88-.488 4.048-1.393l1.466-1.155 14.139 8.36V77l-5.302-.275V64.166h2.651c.368-.004.696-.244.822-.603.126-.36.024-.762-.256-1.01l-10.604-9.167c-.108-.109-.243-.185-.39-.22H52.137c-.105-.026-.214-.026-.318 0h-.248l-10.604 9.167c-.28.248-.382.65-.256 1.01.126.359.453.6.822.603h2.65V76.78h-.936c-2.068.128-4.118.275-6.132.44v-9.387h2.65c.369-.004.696-.244.822-.604.126-.359.024-.761-.256-1.01l-10.604-9.167h-.247c-.105-.025-.214-.025-.318 0H11.488c-.209-.002-.41.076-.566.22l-9.155 7.682V52.781l4.754-2.732c.294-.15.483-.456.493-.796.01-.34-.163-.656-.447-.824-.285-.167-.636-.158-.912.025L.46 51.442c-.282.164-.457.472-.46.807v34.834c.01.502.4.907.884.917h83.063c.484-.01.875-.415.884-.917V46.75c.002-.327-.167-.629-.442-.789h-.035zm-47.1-7.076c-.44.457-1.037.714-1.66.715-.369.004-.732-.084-1.06-.257-1.16-.588-2.517-.588-3.677 0h-.123c-.328.175-.692.263-1.06.257-.573 0-1.125-.216-1.556-.605l-.972-.899 3.535-2.016c.652-.384 1.388-.586 2.138-.587.706.007 1.402.182 2.032.513l3.394 1.834-.99 1.045zm29.18-.275c-.863.669-1.91 1.029-2.987 1.026-.536 0-1.067-.093-1.573-.275l-.53-.165c-1.387-.489-2.89-.489-4.277 0-.51.167-1.04.254-1.573.257-1.327 0-2.599-.547-3.535-1.522l5.108-3.282c.697-.44 1.498-.674 2.315-.678.769-.001 1.524.208 2.191.605l5.797 3.429-.937.605zm-29.32 27.207l.212.183h-.212v-.183zM69.49 54.999l8.483 7.334H63.058l-8.483-7.334H69.49zm2.704 14.942c-.16-.178-.384-.278-.619-.275h-7.07c-.483.01-.873.415-.883.917v5.775H60.09V62.149l2.085 1.834c.155.144.357.223.566.22h13.254V76.65l-3.534-.128v-5.94c.003-.243-.094-.476-.265-.642zM70.692 71.5v4.95h-5.301V71.5h5.301zM45.95 60.628l6.186-5.354 6.185 5.354v15.785h-3.534v-3.997c-.01-.502-.4-.907-.884-.916h-3.535c-.484.01-.874.414-.883.916v4.254l-3.535.183V60.628zm7.07 12.705v3.208h-1.768v-3.208h1.767zm-9.05-11l.213-.184v.184h-.212zM29.16 58.94l6.186 5.353v13.31c-1.184.11-2.368.202-3.534.33v-3.666c-.01-.502-.4-.907-.884-.917h-3.535c-.484.01-.874.415-.883.917v4.253l-3.535.422V64.276l6.186-5.335zm.884 16.225v2.952l-1.767.183v-3.135h1.767zm-18.238-16.5h14.916l-8.483 7.333H3.323l8.483-7.333zm5.602 14.942c-.16-.178-.384-.278-.619-.275H9.72c-.484.01-.874.414-.883.917v6.783l-3.535.605V67.833h13.255c.208.003.41-.076.565-.22l2.086-1.834v13.33l-3.535.494V74.25c.003-.244-.093-.477-.265-.642zm-1.502 1.558v4.73c-1.803.257-3.57.532-5.302.825v-5.555h5.302zM1.767 67.833h1.768v14.153l-1.768.33V67.834zm81.297 18.334H1.767v-1.98c13.74-2.69 27.629-4.478 41.585-5.354 7.07-.44 13.803-.642 20.271-.642 6.84 0 13.326.22 19.44.587v7.389zM16.789 25.665c5.369 0 9.72-4.515 9.72-10.084S22.159 5.498 16.79 5.498c-5.368 0-9.72 4.514-9.72 10.083 0 5.57 4.352 10.084 9.72 10.084zM11.17 9.75c2.68-2.772 6.875-3.194 10.019-1.01 3.144 2.186 4.364 6.37 2.913 9.996-1.451 3.626-5.169 5.684-8.88 4.917-3.712-.767-6.384-4.147-6.384-8.073-.006-2.189.834-4.289 2.332-5.83zM6.01 7.588c-2.838 4.074-3.307 9.431-1.222 13.97 2.085 4.538 6.391 7.534 11.23 7.813 4.838.279 9.438-2.204 11.995-6.475.167-.278.465-.443.781-.431.316.01.602.196.751.485.149.29.137.64-.03.918-2.918 4.796-8.118 7.569-13.576 7.24-5.458-.33-10.313-3.71-12.675-8.825C.901 17.167 1.404 11.125 4.577 6.506c.288-.41.842-.5 1.237-.202.396.299.483.874.195 1.284zM29.656 18.9c.256-1.086.386-2.2.388-3.319.001-4.72-2.333-9.112-6.182-11.631-3.848-2.52-8.674-2.814-12.781-.78-.213.105-.458.119-.68.036-.223-.083-.404-.254-.504-.477-.102-.218-.114-.47-.034-.698.08-.228.245-.412.458-.512 4.654-2.303 10.121-1.97 14.483.885 4.361 2.853 7.007 7.828 7.008 13.177-.001 1.267-.15 2.529-.442 3.759-.117.506-.608.818-1.096.696-.488-.121-.789-.63-.672-1.136h.054zM8.642 3.554c.303.402.24.98-.141 1.302-.181.155-.416.226-.649.199-.233-.028-.445-.153-.588-.346-.15-.188-.219-.43-.192-.672.027-.242.147-.463.333-.611.377-.316.928-.26 1.237.128zm53.214 19.36v.918h2.65c.489 0 .885.41.885.916s-.396.917-.884.917h-5.302c-.488 0-.884-.41-.884-.917 0-.506.396-.916.884-.916h.884v-.917c-.016-2.316-1.694-4.256-3.911-4.522-2.218-.266-4.278 1.226-4.802 3.477-.072.297-.275.542-.548.66-.271.11-.578.069-.813-.11-.42-.284-.913-.431-1.414-.422-1.119.009-2.114.74-2.492 1.834h4.26c.487 0 .883.41.883.916s-.396.917-.884.917h-8.836c-.488 0-.884-.41-.884-.917 0-.506.396-.916.884-.916h2.74c.42-2.135 2.23-3.668 4.33-3.667.468.004.933.085 1.378.238 1.151-2.805 4.046-4.382 6.926-3.773 2.88.61 4.948 3.236 4.95 6.285zM84.83 8.249c0 .506-.396.916-.884.916h-5.302c-.488 0-.883-.41-.883-.916 0-.507.395-.917.883-.917h.884v-.917c-.015-2.315-1.693-4.255-3.91-4.521-2.218-.266-4.278 1.225-4.803 3.476-.072.298-.275.542-.548.66-.27.111-.578.07-.813-.11-.42-.284-.912-.43-1.413-.421-1.12.008-2.114.74-2.492 1.833h4.259c.488 0 .883.41.883.917 0 .506-.395.916-.883.916h-8.837c-.488 0-.883-.41-.883-.916 0-.507.395-.917.883-.917h2.74c.42-2.134 2.23-3.667 4.33-3.667.468.005.933.085 1.378.239C70.572 1.098 73.467-.48 76.346.13c2.88.609 4.949 3.236 4.95 6.284v.917h2.651c.235 0 .46.097.625.269.166.171.259.405.259.648zM38.616 82.775c.276.303.31.766.08 1.108-.23.342-.66.47-1.03.306-.37-.165-.578-.576-.497-.985.08-.409.426-.703.828-.704.235-.003.46.097.619.275zm7.069 0c.277.303.31.766.08 1.108-.23.342-.66.47-1.03.306-.37-.165-.578-.576-.497-.985.08-.409.426-.703.828-.704.235-.003.46.097.619.275zm5.302-1.834c.277.304.31.766.08 1.109-.23.342-.66.47-1.03.305-.37-.164-.578-.575-.497-.984.08-.41.426-.703.828-.705.235-.003.46.097.619.275zm7.07 1.834c.276.303.31.766.08 1.108-.231.342-.661.47-1.031.306-.37-.165-.577-.576-.497-.985.08-.409.426-.703.829-.704.234-.003.459.097.618.275zm-26.51 0c.276.303.31.766.08 1.108-.23.342-.66.47-1.03.306-.37-.165-.578-.576-.498-.985.08-.409.427-.703.829-.704.234-.003.459.097.619.275z" transform="translate(-132 -1486) translate(132 1404) translate(0 82)"/>
                    </g>
                </g>
            </g>
        </g>
    </g>
</svg>
