<svg xmlns="http://www.w3.org/2000/svg" width="85" height="83"><g fill="#BDD17C"><path d="M37.617 10c2.13 0 3.858-1.567 3.858-3.5S39.748 3 37.617 3c-2.13 0-3.858 1.567-3.858 3.5.005 1.93 1.73 3.495 3.858 3.5zm0-5.177c1.021 0 1.849.75 1.849 1.677 0 .926-.828 1.677-1.849 1.677s-1.849-.75-1.849-1.677c0-.445.195-.871.542-1.186a1.95 1.95 0 011.307-.491zM49.191 17c2.131 0 3.859-1.567 3.859-3.5S51.322 10 49.19 10c-2.13 0-3.858 1.567-3.858 3.5.006 1.93 1.73 3.495 3.858 3.5zm0-5.177c1.021 0 1.85.75 1.85 1.677 0 .926-.829 1.677-1.85 1.677-1.02 0-1.848-.75-1.848-1.677 0-.926.827-1.677 1.848-1.677zM3.858 18c2.131 0 3.858-1.567 3.858-3.5S5.99 11 3.858 11C1.728 11 0 12.567 0 14.5c.006 1.93 1.73 3.495 3.858 3.5zm0-5.177c1.021 0 1.849.75 1.849 1.677 0 .926-.828 1.677-1.849 1.677-1.02 0-1.849-.75-1.849-1.677 0-.926.828-1.677 1.85-1.677zM33.759 46.5c0 1.933 1.727 3.5 3.858 3.5 2.13 0 3.858-1.567 3.858-3.5S39.748 43 37.617 43c-2.128.005-3.853 1.57-3.858 3.5zm5.707 0c0 .926-.828 1.677-1.849 1.677s-1.849-.75-1.849-1.677c0-.926.828-1.677 1.849-1.677.492-.003.965.173 1.314.488.349.315.545.743.545 1.189h-.01zm15.999-20.236a3.45 3.45 0 002.106.725c.182.015.365.015.548 0a3.526 3.526 0 002.338-1.479c.1-.145.19-.297.269-.454.353.05.71.075 1.067.077 3.46 0 7.171-2.137 9.695-5.724 2.313-3.166 3.19-7.225 2.403-11.119.17-.153.326-.325.463-.512 1.487-2.163 1.046-5.166-.992-6.768a4.389 4.389 0 00-3.375-.971A4.48 4.48 0 0066.96 1.87c-3.627.164-7.505 2.494-9.992 6.023-2.783 4.003-3.572 9.262-1.93 12.86a3.702 3.702 0 00-1.01 2.885 3.646 3.646 0 001.484 2.654l-.047-.029zm2.923-17.258c2.245-3.181 5.742-5.24 8.906-5.24.288 0 .585-.068 1.123-.822a2.66 2.66 0 011.813-1.05 2.611 2.611 0 011.99.605c1.226.971 1.493 2.78.604 4.09-.07.08-.144.154-.223.222a2.222 2.222 0 00-.64.851c-.025.069-.044.14-.056.213-.03.14-.03.285 0 .425.83 3.44.124 7.085-1.92 9.92-2.515 3.568-6.495 5.52-9.63 4.766a.925.925 0 00-1.077.648.992.992 0 00-.055.136 1.743 1.743 0 01-1.383 1.266 1.691 1.691 0 01-1.723-.841 1.85 1.85 0 01.081-1.982c.124-.176.278-.327.455-.445a.925.925 0 00.092-.096c.063-.05.12-.11.167-.174a.947.947 0 00.056-.126.555.555 0 00.093-.368c.007-.07.007-.142 0-.212a.98.98 0 00-.065-.184.961.961 0 00-.056-.164c-1.707-2.9-1.067-7.812 1.448-11.438z"/><path d="M58.586 18h.146c.454.006.843-.34.916-.815.692-3.983 3.048-7.42 6.409-9.35.45-.246.626-.832.394-1.31-.233-.476-.786-.663-1.236-.416-3.855 2.223-6.55 6.18-7.325 10.756-.097.516.212 1.019.696 1.135zM16.293 61.423c-.27-.404-.867-.543-1.334-.31-.468.231-.63.746-.36 1.15.304.465.629.918.973 1.36.299.388.905.494 1.354.236.449-.257.57-.78.272-1.168a31.927 31.927 0 01-.905-1.268zm11.125 10.573a35.27 35.27 0 01-1.889-1.092 32.328 32.328 0 01-2.143-1.485 27.752 27.752 0 01-3.318-2.98l-.372-.381a7.254 7.254 0 01-.606-.691.945.945 0 00-1.38-.124 1.07 1.07 0 00-.118 1.454c.23.298.48.58.744.845l.343.361a29.661 29.661 0 003.562 3.196 30.625 30.625 0 002.29 1.588 48.23 48.23 0 001.957 1.165c.315.2.708.197 1.02-.007.312-.203.49-.573.46-.958a1.027 1.027 0 00-.599-.87l.05-.02zm36.414-36.59a27.106 27.106 0 01-5.633 4.839c-.36.33-.431.878-.17 1.294a.969.969 0 001.22.376 29.167 29.167 0 006.045-5.19c.26-.263.358-.65.253-1.008a.99.99 0 00-.752-.698.968.968 0 00-.953.357l-.01.03zm-8.282 6.7c-2.994 1.632-5.256 4.38-6.316 7.672a.956.956 0 00.2.918.906.906 0 00.878.281.929.929 0 00.678-.635 11.534 11.534 0 015.451-6.574.953.953 0 00.467-.817.95.95 0 00-.46-.822.909.909 0 00-.926-.004l.027-.02z"/><path d="M84.357 26.008c-.151-.078-3.785-1.91-7.098-.646-.36.136-.708.303-1.04.5.35-.843.68-1.695.946-2.567.167-.513-.1-1.07-.597-1.243a.94.94 0 00-1.201.617 31.509 31.509 0 01-3.218 6.855c-3.204-1.941-7.29-1.241-9.72 1.665l-1.949 2.234a26.573 26.573 0 01-6.785 5.563l-1.997 1.145c-3.137 1.722-5.51 4.63-6.625 8.12a14.557 14.557 0 00-.558 3.408H28.654c3.125-4.18 3.745-9.812 1.609-14.613-2.764-6.248-7.136-9.49-11.698-8.687a8.598 8.598 0 00-3.89 2.174l-.68.549a33.862 33.862 0 01-2.47-7.835c-.097-.541-.6-.899-1.122-.799-.523.1-.868.62-.771 1.16.189.98.435 2.038.71 3.037a7.274 7.274 0 00-1.165-.793c-3.321-1.812-7.362-.441-7.57-.382a.986.986 0 00-.606 1.195c.047.176 1.23 4.407 4.552 6.219.496.263 1.02.467 1.561.607l-.227.157c-4.57 3.477-3.785 10.176-1.58 15.21a14.321 14.321 0 001.892 3.085c-.19.178-.303.43-.312.695C6.887 70.513 20.505 83 40.01 83c19.505 0 33.123-12.487 33.123-30.362 0-.54-.424-.979-.946-.979h-.672v-.127a27.98 27.98 0 012.489-8.58l1.268-2.674a8.076 8.076 0 00-.104-7.58c.672.15 1.357.23 2.044.235a7.213 7.213 0 002.546-.44c3.34-1.255 4.978-5.055 5.044-5.221a.997.997 0 00-.445-1.264zM71.24 53.618a31.348 31.348 0 01-.36 3.917H9.159a31.721 31.721 0 01-.378-3.917h62.46zM3.225 27.066a7.783 7.783 0 015.1.5 8.248 8.248 0 013.294 4.074 7.756 7.756 0 01-5.12-.548 8.248 8.248 0 01-3.274-4.026zm4.836 8.149a6.944 6.944 0 012.971-.98 9.95 9.95 0 002.612-.675 10.994 10.994 0 002.215-1.49 6.992 6.992 0 013.028-1.772c5.432-.98 8.764 5.553 9.653 7.571 2.068 4.673 1.088 10.185-2.451 13.79H9.357a.963.963 0 00-.18-.304 12.275 12.275 0 01-2.148-3.31c-1.93-4.368-2.678-10.03 1.032-12.83zM40.01 81.04c-16.042 0-27.56-8.413-30.493-21.547h60.984C67.567 72.627 56.051 81.04 40.009 81.04zm33.576-41.625L72.32 42.08a30.073 30.073 0 00-2.669 9.197v.372H46.417c.068-.945.243-1.878.52-2.781.956-3 2.989-5.503 5.679-6.993l1.997-1.146a28.448 28.448 0 007.268-5.965l1.95-2.233a5.887 5.887 0 013.236-1.959c2.237-.478 4.54.414 5.924 2.295a6.32 6.32 0 01.559 6.52l.037.03zm5.527-8.814a7.202 7.202 0 01-4.732-.186 7.486 7.486 0 013.483-3.242 7.176 7.176 0 014.732.186 7.522 7.522 0 01-3.483 3.29v-.048z"/><path d="M8.617 41.99c.532-.083.92-.636.892-1.27-.026-.836.016-1.673.125-2.498.076-.569-.245-1.105-.722-1.207a.788.788 0 00-.681.193 1.106 1.106 0 00-.354.717 16.74 16.74 0 00-.152 2.858c.003.611.382 1.128.892 1.217v-.01zm3.281 9.65a.858.858 0 00.858.343c.32-.065.585-.317.695-.66a1.116 1.116 0 00-.164-1.003 13.003 13.003 0 01-1.706-2.997 21.846 21.846 0 01-1.126-3.607c-.141-.513-.614-.814-1.08-.687-.466.126-.764.636-.68 1.164a24.009 24.009 0 001.225 4.003 15.077 15.077 0 001.978 3.444zm27.344-12.007a9.733 9.733 0 002.621.367 8.904 8.904 0 005.01-1.525c2.23-1.54 3.726-3.997 4.112-6.756a12.163 12.163 0 00-1.722-8.281c-1.498-2.473-3.826-4.276-6.53-5.058a8.945 8.945 0 00-7.603 1.167c-2.252 1.518-3.763 3.98-4.14 6.748-.846 5.973 2.682 11.676 8.252 13.338zm.926-19.699a7.915 7.915 0 012.14.3c2.26.656 4.205 2.166 5.454 4.236a10.169 10.169 0 011.445 6.94 8.42 8.42 0 01-1.445 3.6 15.37 15.37 0 00-1.787-8.947c-1.793-2.97-4.662-5.059-7.955-5.791a7.19 7.19 0 012.148-.328v-.01zm-7.353 6.65a8.137 8.137 0 012.334-4.613h.101c3.719-.145 7.222 1.815 9.16 5.125 1.704 2.76 1.852 7.074 1.139 9.94a7.33 7.33 0 01-5.844.734c-4.655-1.411-7.597-6.187-6.89-11.186z"/><circle cx="18.743" cy="17.22" r="1" transform="rotate(-30.66 18.743 17.22)"/><circle cx="23.099" cy="19.082" r="1" transform="rotate(-30.66 23.099 19.082)"/><circle cx="24.117" cy="9.375" r="1" transform="rotate(-30.66 24.117 9.375)"/><circle cx="25.376" cy="15.412" r="1" transform="rotate(-30.66 25.376 15.412)"/><circle cx="21.02" cy="13.55" r="1" transform="rotate(-30.66 21.02 13.55)"/><circle cx="19.908" cy="9.687" r="1" transform="rotate(-30.66 19.908 9.687)"/><circle cx="15.522" cy="13.518" r="1" transform="rotate(-30.66 15.522 13.518)"/><path d="M11.301 7.402l2.86.775c-3.307 2.981-4.136 6.629-2.161 10.186 1.686 3.032 7.547 6.033 10.668 6.57 2.332.403 4.6-1.033 5.385-3.41 1.053-3.19 1.398-10.106-.289-13.137-1.91-3.439-5.18-4.482-9.01-2.982l.755-3.16a1.041 1.041 0 00-.25-.96.896.896 0 00-.904-.248.971.971 0 00-.653.711l-.885 3.687-1.211-2.196a.932.932 0 00-.82-.584.923.923 0 00-.853.528 1.05 1.05 0 00.07 1.05l1.23 2.206-3.457-.944a.892.892 0 00-.899.267c-.233.253-.322.62-.233.964.09.342.343.608.666.697l-.009-.02zm14.907 1.987c1.268 2.286 1.146 8.388.13 11.459-.485 1.472-1.891 2.36-3.335 2.107-3.01-.517-8.096-3.34-9.363-5.625a5.253 5.253 0 01-.373-4.88c.889-1.74 2.24-3.161 3.885-4.084a9.672 9.672 0 014.845-1.69c1.761-.001 3.372 1.056 4.165 2.733l.046-.02z"/></g></svg>