<svg xmlns="http://www.w3.org/2000/svg" width="86" height="37"><g fill="#192752"><path d="M81.963 16.147H68.45a3.334 3.334 0 00-3.335 3.335v7.634c0 1.492.966 2.72 2.37 3.16v2.544a.6.6 0 00.614.615h1.404a.6.6 0 00.614-.615v-2.369h10.268v2.37a.6.6 0 00.614.614h1.404a.6.6 0 00.614-.615v-2.544c1.317-.44 2.37-1.668 2.37-3.16v-7.634c-.088-1.843-1.58-3.335-3.423-3.335zm1.58 10.97c0 .877-.702 1.579-1.58 1.579H68.45c-.878 0-1.58-.702-1.58-1.58v-2.983h16.674v2.983zm0-4.652H66.869v-2.983c0-.878.702-1.58 1.58-1.58h13.514c.878 0 1.58.702 1.58 1.58v2.983z"/><path d="M73.714 19.306h2.984v1.755h-2.984zm-.087 6.231h2.984v1.755h-2.984zm-13.866-3.949h-.614V7.547C59.147 3.86 56.163.79 52.39.79H12.286C8.6.79 5.529 3.773 5.529 7.547v14.129h-.615c-2.281 0-4.212 1.842-4.212 4.212v2.194c0 .877.702 1.58 1.58 1.58H5.09v5.703c0 .351.263.702.702.702H7.02a.692.692 0 00.702-.702v-5.704h49.143v5.704c0 .351.264.702.702.702h1.317c.35 0 .702-.263.702-.702v-5.704h2.72c.878 0 1.58-.702 1.58-1.58V25.8c0-2.282-1.843-4.212-4.125-4.212zM7.284 7.547c0-2.72 2.194-5.002 5.002-5.002H52.39c2.72 0 5.002 2.194 5.002 5.002v14.129h-2.37v-2.72a4.026 4.026 0 00-4.036-4.038h-1.404v-3.51c0-2.106-1.755-3.861-3.862-3.861h-6.669c-2.106 0-3.861 1.755-3.861 3.861v3.51h-5.704v-3.51c0-2.106-1.755-3.861-3.862-3.861h-6.669c-2.106 0-3.861 1.755-3.861 3.861v3.51H13.69a4.026 4.026 0 00-4.037 4.037v2.72h-2.37V7.548zM27.73 14.83H16.849v-3.51c0-1.141.965-2.107 2.106-2.107h6.67c1.14 0 2.106.966 2.106 2.106v3.51zm23.255 1.755c1.228 0 2.281 1.053 2.281 2.281v2.72H11.408v-2.72c0-1.228 1.053-2.281 2.282-2.281h37.296zm-3.16-1.755H36.946v-3.51c0-1.141.965-2.107 2.106-2.107h6.67c1.14 0 2.106.966 2.106 2.106v3.51zM62.13 27.905H2.457V25.8a2.453 2.453 0 012.457-2.457h54.847a2.452 2.452 0 012.457 2.457v2.106h-.087z"/></g></svg>