<svg xmlns="http://www.w3.org/2000/svg" width="63" height="54"><g fill="#192752"><path d="M57.923 46.63H5.919c-2.72 0-4.935-2.222-4.935-4.954V4.955C.984 2.224 3.198 0 5.919 0h52.035c2.72 0 4.935 2.224 4.935 4.955v36.752c-.032 2.7-2.246 4.924-4.966 4.924zM5.919 1.907a3.044 3.044 0 00-3.037 3.05v36.751c0 1.684 1.36 3.05 3.037 3.05h52.035a3.044 3.044 0 003.037-3.05V4.955c0-1.683-1.36-3.05-3.037-3.05H5.919z"/><path d="M61.908 36.784H1.934c-.538 0-.949-.413-.949-.953s.411-.953.949-.953h60.007c.538 0 .95.413.95.953s-.444.953-.982.953zm-29.987 2.16c1.012 0 1.834.825 1.834 1.842a1.84 1.84 0 01-1.834 1.842 1.84 1.84 0 01-1.835-1.842c0-1.017.822-1.842 1.835-1.842zM42.802 54H21.039c-.538 0-.949-.413-.949-.953s.411-.953.95-.953h21.73c.538 0 .95.413.95.953s-.412.953-.918.953z"/><path d="M38.5 54H25.31a.935.935 0 01-.95-.953v-7.37c0-.54.412-.952.95-.952H38.5c.538 0 .95.413.95.953v7.37c0 .54-.412.952-.95.952zm-12.21-1.906h11.294v-5.463H26.29v5.463z"/></g></svg>