<svg xmlns="http://www.w3.org/2000/svg" width="62" height="52"><path d="M31 0A49.635 49.635 0 00.535 10.418c-.588.461-.714 1.43-.264 2.033.45.604 1.394.733 1.982.271A46.83 46.83 0 0131 2.892a46.827 46.827 0 0128.747 9.83c.588.462 1.532.333 1.982-.27.45-.604.324-1.573-.264-2.034A49.635 49.635 0 0031 0zm.5 13c-8.236 0-15.914 2.529-21.884 7.413-.658.431-.822 1.47-.33 2.087.492.618 1.528.673 2.081.11 5.424-4.438 12.462-6.769 20.133-6.769 7.67 0 14.71 2.331 20.133 6.77.553.562 1.589.507 2.08-.11.493-.619.329-1.657-.33-2.088C47.414 15.529 39.736 13 31.5 13zM31 26c-5.031 0-9.81 1.58-13.486 4.499-.579.46-.688 1.405-.23 1.986.459.58 1.403.69 1.982.23 3.138-2.492 7.296-3.907 11.734-3.907s8.596 1.414 11.734 3.906c.579.46 1.523.35 1.982-.23.458-.58.349-1.527-.23-1.986C40.81 27.578 36.03 26 31 26zm0 12c-3.85 0-7 3.15-7 7s3.15 7 7 7 7-3.15 7-7-3.15-7-7-7zm0 3c2.225 0 4 1.775 4 4s-1.775 4-4 4-4-1.775-4-4 1.775-4 4-4z" fill="#192752"/></svg>