<svg xmlns="http://www.w3.org/2000/svg" width="120" height="120" viewBox="0 0 120 120">
    <g fill="none" fill-rule="evenodd">
        <g>
            <g>
                <g transform="translate(-260 -1452) translate(0 1341) translate(260 111)">
                    <circle cx="60" cy="60" r="58.75" fill="#75B9D7" stroke="#FFF" stroke-width="2.5"/>
                    <g fill="#FFF" fill-rule="nonzero">
                        <path d="M62.834 14.075c.398.106.818-.044 1.062-.374.243-.331.26-.776.042-1.124-4.552-7.261-11.565-6.515-15.24-5.476 1.69-2.017 4.955-3.44 6.39-3.9.396-.128.673-.49.692-.907.02-.417-.224-.802-.608-.965-8.015-3.4-14.29-.028-17.16 7.297-7.438-2.143-13.862.306-15.695 8.29-.092.4.07.816.41 1.048.338.232.785.234 1.124.004.042-.028 3.28-2.186 6.787-2.444-1.913 1.173-4.225 3.068-5.438 5.83-1.2 2.733-1.095 5.766.315 9.013.16.37.527.588.933.6.404-.005.765-.254.914-.63.028-.072 2.552-6.246 8.39-8.1-1.21 1.878-2.05 4.928-.095 9.374.166.38.552.61.966.596.415-.021.773-.297.901-.692.57-1.765 2.64-6.63 5.337-7.938 2.255 3.014 7.504 14.256 5.502 30.45-17.558-4.265-41.408-.973-48.16 7.938-.334.44-.247 1.067.193 1.4.44.335 1.067.247 1.4-.192 7.496-9.891 40.081-12.343 55.457-3.712l.013.007c2.147 1.207 3.81 2.573 4.813 4.068.31.46.933.579 1.388.272.458-.308.58-.93.272-1.388-1.099-1.637-2.834-3.125-5.05-4.435.572-23.623-10.273-36.84-10.352-36.977 4.201-1.66 8.998 2.13 9.046 2.169.295.237.701.286 1.048.127.345-.16.57-.501.58-.881.122-4.8-3.862-6.965-8.624-7.387 4.187-3.082 12.356-.985 12.447-.961zm-15.533 1.36c-.455.705.114 1.61.901 1.542 2.87-.201 7.243.62 8.444 3.34-2.12-1.173-5.625-2.516-9.034-1.171-1.286.494-1.72 2.094-.838 3.156.104.124 10.168 12.39 9.935 34.629-1.886-.914-4.032-1.717-6.396-2.39 2.173-16.995-3.45-28.95-5.857-32.165-.573-.758-1.61-1.002-2.459-.588-2.479 1.189-4.285 4.25-5.33 6.5-.943-4.71 2.285-6.593 2.44-6.68.93-.507.526-1.922-.52-1.877-6.499.269-10.254 4.849-11.964 7.679-.434-1.883-.3-3.64.4-5.24 1.891-4.321 7.31-6.256 7.363-6.275.401-.14.67-.518.671-.942.001-.424-.265-.803-.665-.945C30.986 12.8 27.3 13.99 25 15.062c2.346-5.47 8.321-6.182 13.268-4.248.262.1.553.086.805-.04.251-.124.438-.35.516-.618 1.668-5.631 6.216-9.342 12.354-7.814-2.376 1.159-5.645 3.279-6.218 6.366-.069.374.08.754.384.982.304.228.711.264 1.051.093.358-.181 8.095-3.966 13.546 1.849-3.743-.541-10.456-.757-13.405 3.804zM5.675 9.004c1.654 0 3 1.346 3 3 0 .552.447 1 1 1 .553 0 1-.448 1-1 0-1.654 1.346-3 3-3 .553 0 1-.448 1-1s-.447-1-1-1c-1.634 0-3.087.788-4 2.003-.913-1.215-2.366-2.003-4-2.003-.553 0-1 .448-1 1s.447 1 1 1zM2.675 19.504c2.206 0 4 1.794 4 4 0 .552.447 1 1 1 .553 0 1-.448 1-1 0-2.206 1.794-4 4-4 .553 0 1-.448 1-1s-.447-1-1-1c-2.085 0-3.924 1.068-5 2.687-1.076-1.618-2.915-2.687-5-2.687-.553 0-1 .448-1 1s.447 1 1 1z" transform="matrix(-1 0 0 1 92 28)"/>
                        <path d="M3.528 48.308c.131.416.517.699.953.699h13.291c.437 0 .822-.283.953-.7l2.061-6.52c.097-.304.042-.635-.146-.892s-.488-.41-.807-.41h-7.706v-8.478c0-.552-.447-1-1-1-3.079 0-5.585 2.888-5.585 6.437v3.042h-3.12c-.318 0-.618.152-.807.409-.188.257-.243.589-.146.893l2.06 6.52zm4.014-10.864c0-2.017 1.093-3.725 2.585-4.261v7.304H7.542v-3.043zm10.926 5.043l-1.428 4.52H5.214l-1.428-4.52h14.682zM33.947 40.125c.553 0 1-.448 1-1s-.447-1-1-1h-2c-.553 0-1 .448-1 1s.447 1 1 1h2zM29.431 48.054c.553 0 1-.448 1-1s-.447-1-1-1h-2c-.553 0-1 .448-1 1s.447 1 1 1h2zM2.675 53.169c-.553 0-1 .448-1 1s.447 1 1 1h2c.553 0 1-.448 1-1s-.447-1-1-1h-2zM43.393 42.01c.553 0 1-.447 1-1 0-.551-.447-1-1-1h-2c-.553 0-1 .449-1 1 0 .553.447 1 1 1h2zM18.833 36.393h3c.553 0 1-.448 1-1s-.447-1-1-1h-3c-.553 0-1 .448-1 1s.447 1 1 1zM39.393 46.956c.553 0 1-.448 1-1s-.447-1-1-1h-3c-.553 0-1 .448-1 1s.447 1 1 1h3z" transform="matrix(-1 0 0 1 92 28)"/>
                    </g>
                </g>
            </g>
        </g>
    </g>
</svg>
