<svg xmlns="http://www.w3.org/2000/svg" width="124" height="124" viewBox="0 0 124 124">
    <g fill="none" fill-rule="evenodd">
        <g>
            <g>
                <g transform="translate(-658 -1450) translate(0 1341) translate(660 111)">
                    <circle cx="60" cy="60" r="60" fill="#75B9D7" stroke="#FFF" stroke-width="2.5"/>
                    <g fill="#FFF" fill-rule="nonzero">
                        <path d="M63 33.789h-9.707V17.227l3.621 2.423c.46.308 1.08.184 1.387-.275.307-.459.184-1.08-.275-1.387L32.896 1.169c-.337-.226-.775-.226-1.112 0L6.654 17.988c-.459.307-.582.928-.275 1.387.308.46.929.581 1.387.275l2.947-1.973v16.112H1c-.552 0-1 .448-1 1s.448 1 1 1h3.633V64c0 .552.448 1 1 1h52.734c.552 0 1-.448 1-1V35.789H63c.552 0 1-.448 1-1s-.448-1-1-1zm-50.287-17.45L32.34 3.203l18.954 12.685v17.901h-38.58v-17.45h-.001zM38.027 63H25.973V45.693h12.054V63zm19.34-24.259H43.721c-.552 0-1 .448-1 1s.448 1 1 1h13.646V63h-17.34V44.693c0-.552-.448-1-1-1H24.973c-.552 0-1 .448-1 1V63H6.633V40.741h13.805c.552 0 1-.448 1-1s-.448-1-1-1H6.633v-2.952h50.734v2.952z" transform="translate(28 26)"/>
                        <path d="M42.077 26.998h-.739V19h.739c.552 0 1-.448 1-1s-.448-1-1-1H22.604c-.552 0-1 .448-1 1s.448 1 1 1h.739v7.998h-.739c-.552 0-1 .448-1 1s.448 1 1 1h19.473c.552 0 1-.448 1-1s-.448-1-1-1zm-2.739 0H33.34V19h5.998v7.998zM25.342 19h5.998v7.998h-5.998V19zM20.303 47.842c.552 0 1-.448 1-1s-.448-1-1-1h-10c-.552 0-1 .448-1 1s.448 1 1 1h.501v6h-.501c-.552 0-1 .448-1 1s.448 1 1 1h10c.552 0 1-.448 1-1s-.448-1-1-1h-.501v-6h.501zm-2.501 6h-4.998v-6h4.998v6zM43.697 53.842c-.552 0-1 .448-1 1s.448 1 1 1h10c.552 0 1-.448 1-1s-.448-1-1-1h-.501v-6h.501c.552 0 1-.448 1-1s-.448-1-1-1h-10c-.552 0-1 .448-1 1s.448 1 1 1h.501v6h-.501zm2.501-6h4.998v6h-4.998v-6zM28.84 12.704h1c.552 0 1-.448 1-1s-.448-1-1-1h-1c-.552 0-1 .448-1 1s.448 1 1 1zM34.84 12.704h1c.552 0 1-.448 1-1s-.448-1-1-1h-1c-.552 0-1 .448-1 1s.448 1 1 1zM29.335 55.347h1c.552 0 1-.448 1-1s-.448-1-1-1h-1c-.552 0-1 .448-1 1s.448 1 1 1z" transform="translate(28 26)"/>
                    </g>
                </g>
            </g>
        </g>
    </g>
</svg>
