<svg xmlns="http://www.w3.org/2000/svg" width="124" height="124" viewBox="0 0 124 124">
    <g fill="none" fill-rule="evenodd">
        <g>
            <g>
                <g transform="translate(-1058 -1450) translate(0 1341) translate(1060 111)">
                    <circle cx="60" cy="60" r="60" fill="#75B9D7" stroke="#FFF" stroke-width="2.5"/>
                    <g fill="#FFF" fill-rule="nonzero">
                        <path d="M52.507 32.26c-.146-.357-.484-.598-.869-.62-.402-.026-.749.18-.934.517l-7.556 13.757-10.659-24.163v-4.396l9.812-3.754c.387-.148.643-.52.643-.934 0-.414-.255-.786-.643-.934l-10.455-4c-.663-.252-1.357.265-1.357.934v13.085L18.16 49.7l-5.918-11.733c-.179-.354-.545-.575-.945-.548-.396.021-.742.272-.883.643l-9.35 24.58c-.117.307-.075.652.111.923.187.271.495.432.823.432 49.641.005 56.643.002 62.002.002.333 0 .645-.166.83-.442.186-.277.222-.628.096-.936L52.507 32.26zm-1.058 2.696l3.783 9.247-1.291 1.291-2.293-2.293c-.391-.391-1.023-.391-1.414 0l-2.293 2.293-1.472-1.472 4.98-9.066zm-36.527 27.04l10.085-22.863 1.915 1.921c.188.188.442.294.708.294h.001c.265 0 .52-.105.707-.293l3.152-3.152 3.143 3.151c.188.188.442.294.708.294.265 0 .52-.105.707-.293l1.923-1.923 10.087 22.866c-5.054.003-28.082-.001-33.136-.002zm16.567-37.557l5.616 12.731-1.763 1.763-3.143-3.151c-.188-.188-.442-.294-.708-.294-.265 0-.52.105-.707.293l-3.152 3.151-1.758-1.764 5.615-12.729zm1-9.226v-5.094l6.656 2.547-6.656 2.547zM11.477 40.892l3.764 7.462-.8.8-1.793-1.793c-.391-.391-1.023-.391-1.414 0l-1.793 1.793-.802-.802 2.838-7.46zm-3.617 9.51l.874.874c.391.391 1.023.391 1.414 0l1.793-1.793 1.793 1.793c.195.195.451.293.707.293.256 0 .512-.098.707-.293l1.041-1.042.926 1.835-4.379 9.927H3.449L7.86 50.402zm42.384 11.596l-6.079-13.781 1.302-2.37 1.768 1.768c.391.391 1.023.391 1.414 0l2.293-2.293 2.293 2.293c.195.195.451.293.707.293.256 0 .512-.098.707-.293l1.405-1.405 6.458 15.788H50.244zM4.821 12.001h10.335c2.107 0 3.822-1.714 3.822-3.822 0-1.664-1.042-3.067-2.524-3.594.259-2.418-1.633-4.584-4.12-4.584-1.417 0-2.702.722-3.453 1.874-1.909-.535-3.957.591-4.515 2.514C2.452 4.601.999 6.245.999 8.179c0 2.108 1.715 3.822 3.822 3.822zm.256-5.614c.284.038.573-.043.791-.229.218-.187.346-.458.351-.746.021-1.323 1.482-2.115 2.6-1.396.259.167.584.204.876.101.292-.104.519-.337.615-.632.29-.888 1.103-1.484 2.024-1.484 1.541 0 2.567 1.572 1.975 2.975-.128.304-.098.653.081.93.179.278.484.449.814.458.995.026 1.774.824 1.774 1.815 0 1.004-.817 1.822-1.822 1.822H4.821c-1.005 0-1.822-.817-1.822-1.822 0-1.048.902-1.959 2.078-1.792zM51.68 12.553h9.319c2.206 0 4-1.794 4-4 0-2.328-1.986-4.071-4.023-3.997-.438-6.005-9.427-6.044-9.823.036-1.999.258-3.473 1.968-3.473 3.961 0 2.206 1.794 4 4 4zm.349-5.962c.324.057.65-.047.88-.277.23-.23.334-.559.279-.88-.153-.874.071-1.722.63-2.387 1.97-2.343 5.749-.456 5.101 2.508-.079.361.048.736.33.976.282.24.672.304 1.016.167 1.318-.525 2.734.444 2.734 1.854 0 1.103-.897 2-2 2H51.68c-1.103 0-2-.897-2-2 0-1.202 1.071-2.188 2.349-1.961zM13.386 23.712c-.913-1.215-2.366-2.003-4-2.003-.552 0-1 .448-1 1s.448 1 1 1c1.654 0 3 1.346 3 3 0 .552.448 1 1 1s1-.448 1-1c0-1.654 1.346-3 3-3 .552 0 1-.448 1-1s-.448-1-1-1c-1.634 0-3.087.787-4 2.003z" transform="translate(27 28)"/>
                        <path d="M44.68 23.709c1.654 0 3 1.346 3 3 0 .552.448 1 1 1s1-.448 1-1c0-1.654 1.346-3 3-3 .552 0 1-.448 1-1s-.448-1-1-1c-1.634 0-3.087.788-4 2.003-.913-1.215-2.366-2.003-4-2.003-.552 0-1 .448-1 1s.447 1 1 1z" transform="translate(27 28)"/>
                    </g>
                </g>
            </g>
        </g>
    </g>
</svg>
